<?xml version="1.0" encoding="UTF-8" standalone="no"?>
<!DOCTYPE svg PUBLIC "-//W3C//DTD SVG 1.1//EN"
 "http://www.w3.org/Graphics/SVG/1.1/DTD/svg11.dtd">
<!-- Generated by graphviz version 9.0.0 (20230911.1827)
 -->
<!-- Title: Account Pages: 1 -->
<svg width="1149pt" height="835pt"
 viewBox="0.00 0.00 1149.00 835.13" xmlns="http://www.w3.org/2000/svg" xmlns:xlink="http://www.w3.org/1999/xlink">
<g id="graph0" class="graph" transform="scale(1 1) rotate(0) translate(4 831.13)">
<title>Account</title>
<g id="a_graph0"><a xlink:title="proto">
<text text-anchor="middle" x="570.5" y="-7.2" font-family="Times,serif" font-size="14.00">proto</text>
</a>
</g>
<!-- Node_Ja_124 -->
<g id="node1" class="node">
<title>Node_Ja_124</title>
<g id="a_node1"><a xlink:title="proto.ThresholdKey">
<polygon fill="#fffaf0" stroke="none" points="8,-722.5 8,-778.5 128,-778.5 128,-722.5 8,-722.5"/>
<polygon fill="#e31a1c" stroke="none" points="9,-759.5 9,-777.5 127,-777.5 127,-759.5 9,-759.5"/>
<text text-anchor="start" x="41" y="-766.05" font-family="Verdana" font-weight="bold" font-size="11.00">ThresholdKey</text>
<text text-anchor="start" x="14.62" y="-747.05" font-family="Verdana" font-size="11.00">1</text>
<text text-anchor="start" x="24.62" y="-747.05" font-family="Verdana" font-size="11.00">threshold</text>
<polygon fill="#a6cee3" stroke="none" points="78,-741.5 78,-759.5 127,-759.5 127,-741.5 78,-741.5"/>
<text text-anchor="start" x="90.5" y="-748.05" font-family="Verdana" font-style="italic" font-size="11.00">uint32</text>
<text text-anchor="start" x="14.62" y="-729.05" font-family="Verdana" font-size="11.00">2</text>
<text text-anchor="start" x="25" y="-729.05" font-family="Verdana" font-size="11.00">keys</text>
<polygon fill="#fb9a99" stroke="none" points="78,-723.5 78,-741.5 127,-741.5 127,-723.5 78,-723.5"/>
<text text-anchor="start" x="79.62" y="-730.05" font-family="Verdana" font-weight="bold" font-size="11.00">KeyList</text>
<polygon fill="none" stroke="black" points="8,-722.5 8,-778.5 128,-778.5 128,-722.5 8,-722.5"/>
</a>
</g>
</g>
<!-- Node_Ja_125 -->
<g id="node8" class="node">
<title>Node_Ja_125</title>
<g id="a_node8"><a xlink:title="proto.KeyList">
<polygon fill="#fffaf0" stroke="none" points="373,-701.5 373,-739.5 467,-739.5 467,-701.5 373,-701.5"/>
<polygon fill="#e31a1c" stroke="none" points="374,-720.5 374,-738.5 466,-738.5 466,-720.5 374,-720.5"/>
<text text-anchor="start" x="418.25" y="-727.05" font-family="Verdana" font-weight="bold" font-size="11.00">KeyList</text>
<text text-anchor="start" x="375.62" y="-708.05" font-family="Verdana" font-size="11.00">[...]</text>
<text text-anchor="start" x="400.62" y="-708.05" font-family="Verdana" font-size="11.00">1</text>
<text text-anchor="start" x="410.88" y="-708.05" font-family="Verdana" font-size="11.00">keys</text>
<polygon fill="#fb9a99" stroke="none" points="439,-702.5 439,-720.5 466,-720.5 466,-702.5 439,-702.5"/>
<text text-anchor="start" x="440.88" y="-709.05" font-family="Verdana" font-weight="bold" font-size="11.00">Key</text>
<polygon fill="none" stroke="black" points="373,-701.5 373,-739.5 467,-739.5 467,-701.5 373,-701.5"/>
</a>
</g>
</g>
<!-- Node_Ja_124&#45;&gt;Node_Ja_125 -->
<g id="edge7" class="edge">
<title>Node_Ja_124:e&#45;&gt;Node_Ja_125:header</title>
<g id="a_edge7"><a xlink:title="Ja_124 &#45;&#45;&gt; Ja_125">
<path fill="none" stroke="#000000" d="M128,-732.5C232.96,-732.5 262.03,-729.71 361.51,-729.51"/>
<polygon fill="#000000" stroke="#000000" points="361.49,-733.01 371.49,-729.5 361.48,-726.01 361.49,-733.01"/>
</a>
</g>
</g>
<!-- Node_Ja_150 -->
<g id="node2" class="node">
<title>Node_Ja_150</title>
<g id="a_node2"><a xlink:title="proto.AccountApprovalForAllAllowance">
<polygon fill="#fffaf0" stroke="none" points="728,-248.5 728,-304.5 937,-304.5 937,-248.5 728,-248.5"/>
<polygon fill="#e31a1c" stroke="none" points="729,-285.5 729,-303.5 936,-303.5 936,-285.5 729,-285.5"/>
<text text-anchor="start" x="730.88" y="-292.05" font-family="Verdana" font-weight="bold" font-size="11.00">AccountApprovalForAllAllowance</text>
<text text-anchor="start" x="779.25" y="-273.05" font-family="Verdana" font-size="11.00">1</text>
<text text-anchor="start" x="790" y="-273.05" font-family="Verdana" font-size="11.00">token_id</text>
<polygon fill="#fb9a99" stroke="none" points="860,-267.5 860,-285.5 936,-285.5 936,-267.5 860,-267.5"/>
<text text-anchor="start" x="881.5" y="-274.05" font-family="Verdana" font-weight="bold" font-size="11.00">TokenID</text>
<text text-anchor="start" x="779.25" y="-255.05" font-family="Verdana" font-size="11.00">2</text>
<text text-anchor="start" x="790" y="-255.05" font-family="Verdana" font-size="11.00">spender_id</text>
<polygon fill="#fb9a99" stroke="none" points="860,-249.5 860,-267.5 936,-267.5 936,-249.5 860,-249.5"/>
<text text-anchor="start" x="869.5" y="-256.05" font-family="Verdana" font-weight="bold" font-size="11.00">AccountID</text>
<polygon fill="none" stroke="black" points="728,-248.5 728,-304.5 937,-304.5 937,-248.5 728,-248.5"/>
</a>
</g>
</g>
<!-- Node_Ja_104 -->
<g id="node3" class="node">
<title>Node_Ja_104</title>
<g id="a_node3"><a xlink:title="proto.TokenID">
<polygon fill="#fffaf0" stroke="none" points="1015,-91.5 1015,-165.5 1123,-165.5 1123,-91.5 1015,-91.5"/>
<polygon fill="#e31a1c" stroke="none" points="1016,-146.5 1016,-164.5 1122,-164.5 1122,-146.5 1016,-146.5"/>
<text text-anchor="start" x="1067.5" y="-153.05" font-family="Verdana" font-weight="bold" font-size="11.00">TokenID</text>
<text text-anchor="start" x="1021.62" y="-134.05" font-family="Verdana" font-size="11.00">1</text>
<text text-anchor="start" x="1032" y="-134.05" font-family="Verdana" font-size="11.00">shardNum</text>
<polygon fill="#a6cee3" stroke="none" points="1091,-128.5 1091,-146.5 1122,-146.5 1122,-128.5 1091,-128.5"/>
<text text-anchor="start" x="1092.62" y="-135.05" font-family="Verdana" font-style="italic" font-size="11.00">int64</text>
<text text-anchor="start" x="1021.62" y="-116.05" font-family="Verdana" font-size="11.00">2</text>
<text text-anchor="start" x="1032" y="-116.05" font-family="Verdana" font-size="11.00">realmNum</text>
<polygon fill="#a6cee3" stroke="none" points="1091,-110.5 1091,-128.5 1122,-128.5 1122,-110.5 1091,-110.5"/>
<text text-anchor="start" x="1092.62" y="-117.05" font-family="Verdana" font-style="italic" font-size="11.00">int64</text>
<text text-anchor="start" x="1021.62" y="-98.05" font-family="Verdana" font-size="11.00">3</text>
<text text-anchor="start" x="1032" y="-98.05" font-family="Verdana" font-size="11.00">tokenNum</text>
<polygon fill="#a6cee3" stroke="none" points="1091,-92.5 1091,-110.5 1122,-110.5 1122,-92.5 1091,-92.5"/>
<text text-anchor="start" x="1092.62" y="-99.05" font-family="Verdana" font-style="italic" font-size="11.00">int64</text>
<polygon fill="none" stroke="black" points="1015,-91.5 1015,-165.5 1123,-165.5 1123,-91.5 1015,-91.5"/>
</a>
</g>
</g>
<!-- Node_Ja_150&#45;&gt;Node_Ja_104 -->
<g id="edge17" class="edge">
<title>Node_Ja_150:e&#45;&gt;Node_Ja_104:header</title>
<g id="a_edge17"><a xlink:title="Ja_150 &#45;&#45;&gt; Ja_104">
<path fill="none" stroke="#000000" d="M937.5,-276.5C997.12,-276.5 957.3,-171.04 1003.72,-157.03"/>
<polygon fill="#000000" stroke="#000000" points="1004.06,-160.52 1013.5,-155.7 1003.12,-153.58 1004.06,-160.52"/>
</a>
</g>
</g>
<!-- Node_Ja_105 -->
<g id="node5" class="node">
<title>Node_Ja_105</title>
<g id="a_node5"><a xlink:title="proto.AccountID">
<polygon fill="#fffaf0" stroke="none" points="1007.5,-311.5 1007.5,-425.5 1130.5,-425.5 1130.5,-311.5 1007.5,-311.5"/>
<polygon fill="#e31a1c" stroke="none" points="1008.5,-406.5 1008.5,-424.5 1129.5,-424.5 1129.5,-406.5 1008.5,-406.5"/>
<text text-anchor="start" x="1063" y="-413.05" font-family="Verdana" font-weight="bold" font-size="11.00">AccountID</text>
<text text-anchor="start" x="1014.12" y="-394.05" font-family="Verdana" font-size="11.00">1</text>
<text text-anchor="start" x="1024.5" y="-394.05" font-family="Verdana" font-size="11.00">shardNum</text>
<polygon fill="#a6cee3" stroke="none" points="1095.5,-388.5 1095.5,-406.5 1129.5,-406.5 1129.5,-388.5 1095.5,-388.5"/>
<text text-anchor="start" x="1099.75" y="-395.05" font-family="Verdana" font-style="italic" font-size="11.00">int64</text>
<text text-anchor="start" x="1014.12" y="-376.05" font-family="Verdana" font-size="11.00">2</text>
<text text-anchor="start" x="1024.5" y="-376.05" font-family="Verdana" font-size="11.00">realmNum</text>
<polygon fill="#a6cee3" stroke="none" points="1095.5,-370.5 1095.5,-388.5 1129.5,-388.5 1129.5,-370.5 1095.5,-370.5"/>
<text text-anchor="start" x="1099.75" y="-377.05" font-family="Verdana" font-style="italic" font-size="11.00">int64</text>
<polygon fill="#fdbf6f" stroke="none" points="1008.5,-352.5 1008.5,-370.5 1129.5,-370.5 1129.5,-352.5 1008.5,-352.5"/>
<text text-anchor="start" x="1010.5" y="-358.05" font-family="Verdana" font-size="11.00">account</text>
<polygon fill="#fdbf6f" stroke="none" points="1008.5,-334.5 1008.5,-352.5 1012.5,-352.5 1012.5,-334.5 1008.5,-334.5"/>
<text text-anchor="start" x="1014.12" y="-340.05" font-family="Verdana" font-size="11.00">3</text>
<text text-anchor="start" x="1024.5" y="-340.05" font-family="Verdana" font-size="11.00">accountNum</text>
<polygon fill="#a6cee3" stroke="none" points="1095.5,-334.5 1095.5,-352.5 1129.5,-352.5 1129.5,-334.5 1095.5,-334.5"/>
<text text-anchor="start" x="1099.75" y="-341.05" font-family="Verdana" font-style="italic" font-size="11.00">int64</text>
<polygon fill="#fdbf6f" stroke="none" points="1008.5,-316.5 1008.5,-334.5 1012.5,-334.5 1012.5,-316.5 1008.5,-316.5"/>
<text text-anchor="start" x="1014.12" y="-322.05" font-family="Verdana" font-size="11.00">4</text>
<text text-anchor="start" x="1024.5" y="-322.05" font-family="Verdana" font-size="11.00">alias</text>
<polygon fill="#a6cee3" stroke="none" points="1095.5,-316.5 1095.5,-334.5 1129.5,-334.5 1129.5,-316.5 1095.5,-316.5"/>
<text text-anchor="start" x="1097.12" y="-323.05" font-family="Verdana" font-style="italic" font-size="11.00">bytes</text>
<polygon fill="#fdbf6f" stroke="none" points="1008.5,-312.5 1008.5,-316.5 1129.5,-316.5 1129.5,-312.5 1008.5,-312.5"/>
<polygon fill="none" stroke="black" points="1007.5,-311.5 1007.5,-425.5 1130.5,-425.5 1130.5,-311.5 1007.5,-311.5"/>
</a>
</g>
</g>
<!-- Node_Ja_150&#45;&gt;Node_Ja_105 -->
<g id="edge16" class="edge">
<title>Node_Ja_150:e&#45;&gt;Node_Ja_105:header</title>
<g id="a_edge16"><a xlink:title="Ja_150 &#45;&#45;&gt; Ja_105">
<path fill="none" stroke="#000000" d="M937.5,-258.5C1009.64,-258.5 939.31,-398.8 995.86,-414.14"/>
<polygon fill="#000000" stroke="#000000" points="995.15,-417.58 1005.5,-415.32 995.99,-410.63 995.15,-417.58"/>
</a>
</g>
</g>
<!-- Node_Ja_149 -->
<g id="node4" class="node">
<title>Node_Ja_149</title>
<g id="a_node4"><a xlink:title="proto.Account">
<polygon fill="#fffaf0" stroke="none" points="180,-39.5 180,-675.5 660,-675.5 660,-39.5 180,-39.5"/>
<polygon fill="#e31a1c" stroke="none" points="181,-656.5 181,-674.5 659,-674.5 659,-656.5 181,-656.5"/>
<text text-anchor="start" x="607.5" y="-663.05" font-family="Verdana" font-weight="bold" font-size="11.00">Account</text>
<text text-anchor="start" x="214.25" y="-644.05" font-family="Verdana" font-size="11.00">1</text>
<text text-anchor="start" x="225" y="-644.05" font-family="Verdana" font-size="11.00">account_id</text>
<polygon fill="#fb9a99" stroke="none" points="452,-638.5 452,-656.5 659,-656.5 659,-638.5 452,-638.5"/>
<text text-anchor="start" x="592.5" y="-645.05" font-family="Verdana" font-weight="bold" font-size="11.00">AccountID</text>
<text text-anchor="start" x="214.25" y="-626.05" font-family="Verdana" font-size="11.00">2</text>
<text text-anchor="start" x="225" y="-626.05" font-family="Verdana" font-size="11.00">alias</text>
<polygon fill="#a6cee3" stroke="none" points="452,-620.5 452,-638.5 659,-638.5 659,-620.5 452,-620.5"/>
<text text-anchor="start" x="626.25" y="-627.05" font-family="Verdana" font-style="italic" font-size="11.00">bytes</text>
<text text-anchor="start" x="214.25" y="-608.05" font-family="Verdana" font-size="11.00">3</text>
<text text-anchor="start" x="225" y="-608.05" font-family="Verdana" font-size="11.00">key</text>
<polygon fill="#fb9a99" stroke="none" points="452,-602.5 452,-620.5 659,-620.5 659,-602.5 452,-602.5"/>
<text text-anchor="start" x="633.75" y="-609.05" font-family="Verdana" font-weight="bold" font-size="11.00">Key</text>
<text text-anchor="start" x="214.25" y="-590.05" font-family="Verdana" font-size="11.00">4</text>
<text text-anchor="start" x="225" y="-590.05" font-family="Verdana" font-size="11.00">expiration_second</text>
<polygon fill="#a6cee3" stroke="none" points="452,-584.5 452,-602.5 659,-602.5 659,-584.5 452,-584.5"/>
<text text-anchor="start" x="629.25" y="-591.05" font-family="Verdana" font-style="italic" font-size="11.00">int64</text>
<text text-anchor="start" x="214.25" y="-572.05" font-family="Verdana" font-size="11.00">5</text>
<text text-anchor="start" x="225" y="-572.05" font-family="Verdana" font-size="11.00">tinybar_balance</text>
<polygon fill="#a6cee3" stroke="none" points="452,-566.5 452,-584.5 659,-584.5 659,-566.5 452,-566.5"/>
<text text-anchor="start" x="629.25" y="-573.05" font-family="Verdana" font-style="italic" font-size="11.00">int64</text>
<text text-anchor="start" x="214.25" y="-554.05" font-family="Verdana" font-size="11.00">6</text>
<text text-anchor="start" x="225" y="-554.05" font-family="Verdana" font-size="11.00">memo</text>
<polygon fill="#a6cee3" stroke="none" points="452,-548.5 452,-566.5 659,-566.5 659,-548.5 452,-548.5"/>
<text text-anchor="start" x="625.5" y="-555.05" font-family="Verdana" font-style="italic" font-size="11.00">string</text>
<text text-anchor="start" x="214.25" y="-536.05" font-family="Verdana" font-size="11.00">7</text>
<text text-anchor="start" x="225" y="-536.05" font-family="Verdana" font-size="11.00">deleted</text>
<polygon fill="#a6cee3" stroke="none" points="452,-530.5 452,-548.5 659,-548.5 659,-530.5 452,-530.5"/>
<text text-anchor="start" x="633.75" y="-537.05" font-family="Verdana" font-style="italic" font-size="11.00">bool</text>
<text text-anchor="start" x="214.25" y="-518.05" font-family="Verdana" font-size="11.00">8</text>
<text text-anchor="start" x="225" y="-518.05" font-family="Verdana" font-size="11.00">staked_to_me</text>
<polygon fill="#a6cee3" stroke="none" points="452,-512.5 452,-530.5 659,-530.5 659,-512.5 452,-512.5"/>
<text text-anchor="start" x="629.25" y="-519.05" font-family="Verdana" font-style="italic" font-size="11.00">int64</text>
<text text-anchor="start" x="214.25" y="-500.05" font-family="Verdana" font-size="11.00">9</text>
<text text-anchor="start" x="225" y="-500.05" font-family="Verdana" font-size="11.00">stake_period_start</text>
<polygon fill="#a6cee3" stroke="none" points="452,-494.5 452,-512.5 659,-512.5 659,-494.5 452,-494.5"/>
<text text-anchor="start" x="629.25" y="-501.05" font-family="Verdana" font-style="italic" font-size="11.00">int64</text>
<polygon fill="#fdbf6f" stroke="none" points="181,-476.5 181,-494.5 659,-494.5 659,-476.5 181,-476.5"/>
<text text-anchor="start" x="183" y="-482.05" font-family="Verdana" font-size="11.00">staked_id</text>
<polygon fill="#fdbf6f" stroke="none" points="181,-458.5 181,-476.5 206,-476.5 206,-458.5 181,-458.5"/>
<text text-anchor="start" x="207.75" y="-464.05" font-family="Verdana" font-size="11.00">10</text>
<text text-anchor="start" x="225" y="-464.05" font-family="Verdana" font-size="11.00">staked_account_id</text>
<polygon fill="#fb9a99" stroke="none" points="452,-458.5 452,-476.5 659,-476.5 659,-458.5 452,-458.5"/>
<text text-anchor="start" x="592.5" y="-465.05" font-family="Verdana" font-weight="bold" font-size="11.00">AccountID</text>
<polygon fill="#fdbf6f" stroke="none" points="181,-440.5 181,-458.5 206,-458.5 206,-440.5 181,-440.5"/>
<text text-anchor="start" x="207.75" y="-446.05" font-family="Verdana" font-size="11.00">11</text>
<text text-anchor="start" x="225" y="-446.05" font-family="Verdana" font-size="11.00">staked_node_id</text>
<polygon fill="#a6cee3" stroke="none" points="452,-440.5 452,-458.5 659,-458.5 659,-440.5 452,-440.5"/>
<text text-anchor="start" x="629.25" y="-447.05" font-family="Verdana" font-style="italic" font-size="11.00">int64</text>
<polygon fill="#fdbf6f" stroke="none" points="181,-436.5 181,-440.5 659,-440.5 659,-436.5 181,-436.5"/>
<text text-anchor="start" x="207.75" y="-424.05" font-family="Verdana" font-size="11.00">12</text>
<text text-anchor="start" x="225" y="-424.05" font-family="Verdana" font-size="11.00">decline_reward</text>
<polygon fill="#a6cee3" stroke="none" points="452,-418.5 452,-436.5 659,-436.5 659,-418.5 452,-418.5"/>
<text text-anchor="start" x="633.75" y="-425.05" font-family="Verdana" font-style="italic" font-size="11.00">bool</text>
<text text-anchor="start" x="207.75" y="-406.05" font-family="Verdana" font-size="11.00">13</text>
<text text-anchor="start" x="225" y="-406.05" font-family="Verdana" font-size="11.00">receiver_sig_required</text>
<polygon fill="#a6cee3" stroke="none" points="452,-400.5 452,-418.5 659,-418.5 659,-400.5 452,-400.5"/>
<text text-anchor="start" x="633.75" y="-407.05" font-family="Verdana" font-style="italic" font-size="11.00">bool</text>
<text text-anchor="start" x="207.75" y="-388.05" font-family="Verdana" font-size="11.00">14</text>
<text text-anchor="start" x="225" y="-388.05" font-family="Verdana" font-size="11.00">head_token_id</text>
<polygon fill="#fb9a99" stroke="none" points="452,-382.5 452,-400.5 659,-400.5 659,-382.5 452,-382.5"/>
<text text-anchor="start" x="604.5" y="-389.05" font-family="Verdana" font-weight="bold" font-size="11.00">TokenID</text>
<text text-anchor="start" x="207.75" y="-370.05" font-family="Verdana" font-size="11.00">15</text>
<text text-anchor="start" x="225" y="-370.05" font-family="Verdana" font-size="11.00">head_nft_id</text>
<polygon fill="#fb9a99" stroke="none" points="452,-364.5 452,-382.5 659,-382.5 659,-364.5 452,-364.5"/>
<text text-anchor="start" x="623.25" y="-371.05" font-family="Verdana" font-weight="bold" font-size="11.00">NftID</text>
<text text-anchor="start" x="207.75" y="-352.05" font-family="Verdana" font-size="11.00">16</text>
<text text-anchor="start" x="225" y="-352.05" font-family="Verdana" font-size="11.00">head_nft_serial_number</text>
<polygon fill="#a6cee3" stroke="none" points="452,-346.5 452,-364.5 659,-364.5 659,-346.5 452,-346.5"/>
<text text-anchor="start" x="629.25" y="-353.05" font-family="Verdana" font-style="italic" font-size="11.00">int64</text>
<text text-anchor="start" x="207.75" y="-334.05" font-family="Verdana" font-size="11.00">17</text>
<text text-anchor="start" x="225" y="-334.05" font-family="Verdana" font-size="11.00">number_owned_nfts</text>
<polygon fill="#a6cee3" stroke="none" points="452,-328.5 452,-346.5 659,-346.5 659,-328.5 452,-328.5"/>
<text text-anchor="start" x="629.25" y="-335.05" font-family="Verdana" font-style="italic" font-size="11.00">int64</text>
<text text-anchor="start" x="207.75" y="-316.05" font-family="Verdana" font-size="11.00">18</text>
<text text-anchor="start" x="225" y="-316.05" font-family="Verdana" font-size="11.00">max_auto_associations</text>
<polygon fill="#a6cee3" stroke="none" points="452,-310.5 452,-328.5 659,-328.5 659,-310.5 452,-310.5"/>
<text text-anchor="start" x="629.25" y="-317.05" font-family="Verdana" font-style="italic" font-size="11.00">int32</text>
<text text-anchor="start" x="207.75" y="-298.05" font-family="Verdana" font-size="11.00">19</text>
<text text-anchor="start" x="225" y="-298.05" font-family="Verdana" font-size="11.00">used_auto_associations</text>
<polygon fill="#a6cee3" stroke="none" points="452,-292.5 452,-310.5 659,-310.5 659,-292.5 452,-292.5"/>
<text text-anchor="start" x="629.25" y="-299.05" font-family="Verdana" font-style="italic" font-size="11.00">int32</text>
<text text-anchor="start" x="207.75" y="-280.05" font-family="Verdana" font-size="11.00">20</text>
<text text-anchor="start" x="225" y="-280.05" font-family="Verdana" font-size="11.00">number_associations</text>
<polygon fill="#a6cee3" stroke="none" points="452,-274.5 452,-292.5 659,-292.5 659,-274.5 452,-274.5"/>
<text text-anchor="start" x="629.25" y="-281.05" font-family="Verdana" font-style="italic" font-size="11.00">int32</text>
<text text-anchor="start" x="207.75" y="-262.05" font-family="Verdana" font-size="11.00">21</text>
<text text-anchor="start" x="225" y="-262.05" font-family="Verdana" font-size="11.00">smart_contract</text>
<polygon fill="#a6cee3" stroke="none" points="452,-256.5 452,-274.5 659,-274.5 659,-256.5 452,-256.5"/>
<text text-anchor="start" x="633.75" y="-263.05" font-family="Verdana" font-style="italic" font-size="11.00">bool</text>
<text text-anchor="start" x="207.75" y="-244.05" font-family="Verdana" font-size="11.00">22</text>
<text text-anchor="start" x="225" y="-244.05" font-family="Verdana" font-size="11.00">number_positive_balances</text>
<polygon fill="#a6cee3" stroke="none" points="452,-238.5 452,-256.5 659,-256.5 659,-238.5 452,-238.5"/>
<text text-anchor="start" x="629.25" y="-245.05" font-family="Verdana" font-style="italic" font-size="11.00">int32</text>
<text text-anchor="start" x="207.75" y="-226.05" font-family="Verdana" font-size="11.00">23</text>
<text text-anchor="start" x="225" y="-226.05" font-family="Verdana" font-size="11.00">ethereum_nonce</text>
<polygon fill="#a6cee3" stroke="none" points="452,-220.5 452,-238.5 659,-238.5 659,-220.5 452,-220.5"/>
<text text-anchor="start" x="629.25" y="-227.05" font-family="Verdana" font-style="italic" font-size="11.00">int64</text>
<text text-anchor="start" x="207.75" y="-208.05" font-family="Verdana" font-size="11.00">24</text>
<text text-anchor="start" x="224.62" y="-208.05" font-family="Verdana" font-size="11.00">stake_at_start_of_last_rewarded_period</text>
<polygon fill="#a6cee3" stroke="none" points="452,-202.5 452,-220.5 659,-220.5 659,-202.5 452,-202.5"/>
<text text-anchor="start" x="629.25" y="-209.05" font-family="Verdana" font-style="italic" font-size="11.00">int64</text>
<text text-anchor="start" x="207.75" y="-190.05" font-family="Verdana" font-size="11.00">25</text>
<text text-anchor="start" x="225" y="-190.05" font-family="Verdana" font-size="11.00">auto_renew_account_id</text>
<polygon fill="#fb9a99" stroke="none" points="452,-184.5 452,-202.5 659,-202.5 659,-184.5 452,-184.5"/>
<text text-anchor="start" x="592.5" y="-191.05" font-family="Verdana" font-weight="bold" font-size="11.00">AccountID</text>
<text text-anchor="start" x="207.75" y="-172.05" font-family="Verdana" font-size="11.00">26</text>
<text text-anchor="start" x="225" y="-172.05" font-family="Verdana" font-size="11.00">auto_renew_seconds</text>
<polygon fill="#a6cee3" stroke="none" points="452,-166.5 452,-184.5 659,-184.5 659,-166.5 452,-166.5"/>
<text text-anchor="start" x="629.25" y="-173.05" font-family="Verdana" font-style="italic" font-size="11.00">int64</text>
<text text-anchor="start" x="207.75" y="-154.05" font-family="Verdana" font-size="11.00">27</text>
<text text-anchor="start" x="225" y="-154.05" font-family="Verdana" font-size="11.00">contract_kv_pairs_number</text>
<polygon fill="#a6cee3" stroke="none" points="452,-148.5 452,-166.5 659,-166.5 659,-148.5 452,-148.5"/>
<text text-anchor="start" x="629.25" y="-155.05" font-family="Verdana" font-style="italic" font-size="11.00">int32</text>
<text text-anchor="start" x="182.62" y="-136.05" font-family="Verdana" font-size="11.00">[...]</text>
<text text-anchor="start" x="207.75" y="-136.05" font-family="Verdana" font-size="11.00">28</text>
<text text-anchor="start" x="225" y="-136.05" font-family="Verdana" font-size="11.00">crypto_allowances</text>
<polygon fill="#fb9a99" stroke="none" points="452,-130.5 452,-148.5 659,-148.5 659,-130.5 452,-130.5"/>
<text text-anchor="start" x="503.25" y="-137.05" font-family="Verdana" font-weight="bold" font-size="11.00">AccountCryptoAllowance</text>
<text text-anchor="start" x="182.62" y="-118.05" font-family="Verdana" font-size="11.00">[...]</text>
<text text-anchor="start" x="207.75" y="-118.05" font-family="Verdana" font-size="11.00">29</text>
<text text-anchor="start" x="225" y="-118.05" font-family="Verdana" font-size="11.00">approve_for_all_nft_allowances</text>
<polygon fill="#fb9a99" stroke="none" points="452,-112.5 452,-130.5 659,-130.5 659,-112.5 452,-112.5"/>
<text text-anchor="start" x="453.88" y="-119.05" font-family="Verdana" font-weight="bold" font-size="11.00">AccountApprovalForAllAllowance</text>
<text text-anchor="start" x="182.62" y="-100.05" font-family="Verdana" font-size="11.00">[...]</text>
<text text-anchor="start" x="207.75" y="-100.05" font-family="Verdana" font-size="11.00">30</text>
<text text-anchor="start" x="225" y="-100.05" font-family="Verdana" font-size="11.00">token_allowances</text>
<polygon fill="#fb9a99" stroke="none" points="452,-94.5 452,-112.5 659,-112.5 659,-94.5 452,-94.5"/>
<text text-anchor="start" x="454.5" y="-101.05" font-family="Verdana" font-weight="bold" font-size="11.00">AccountFungibleTokenAllowance</text>
<text text-anchor="start" x="207.75" y="-82.05" font-family="Verdana" font-size="11.00">31</text>
<text text-anchor="start" x="225" y="-82.05" font-family="Verdana" font-size="11.00">number_treasury_titles</text>
<polygon fill="#a6cee3" stroke="none" points="452,-76.5 452,-94.5 659,-94.5 659,-76.5 452,-76.5"/>
<text text-anchor="start" x="622.5" y="-83.05" font-family="Verdana" font-style="italic" font-size="11.00">uint32</text>
<text text-anchor="start" x="207.75" y="-64.05" font-family="Verdana" font-size="11.00">32</text>
<text text-anchor="start" x="225" y="-64.05" font-family="Verdana" font-size="11.00">expired_and_pending_removal</text>
<polygon fill="#a6cee3" stroke="none" points="452,-58.5 452,-76.5 659,-76.5 659,-58.5 452,-58.5"/>
<text text-anchor="start" x="633.75" y="-65.05" font-family="Verdana" font-style="italic" font-size="11.00">bool</text>
<text text-anchor="start" x="207.75" y="-46.05" font-family="Verdana" font-size="11.00">33</text>
<text text-anchor="start" x="225" y="-46.05" font-family="Verdana" font-size="11.00">first_contract_storage_key</text>
<polygon fill="#a6cee3" stroke="none" points="452,-40.5 452,-58.5 659,-58.5 659,-40.5 452,-40.5"/>
<text text-anchor="start" x="626.25" y="-47.05" font-family="Verdana" font-style="italic" font-size="11.00">bytes</text>
<polygon fill="none" stroke="black" points="180,-39.5 180,-675.5 660,-675.5 660,-39.5 180,-39.5"/>
</a>
</g>
</g>
<!-- Node_Ja_149&#45;&gt;Node_Ja_150 -->
<g id="edge11" class="edge">
<title>Node_Ja_149:e&#45;&gt;Node_Ja_150:header</title>
<g id="a_edge11"><a xlink:title="Ja_149 &#45;&#45;&gt; Ja_150">
<path fill="none" stroke="#000000" d="M660,-121.5C738.34,-121.5 654.41,-277.38 716.27,-293.21"/>
<polygon fill="#000000" stroke="#000000" points="715.66,-296.66 726,-294.33 716.46,-289.71 715.66,-296.66"/>
</a>
</g>
</g>
<!-- Node_Ja_149&#45;&gt;Node_Ja_104 -->
<g id="edge19" class="edge">
<title>Node_Ja_149:e&#45;&gt;Node_Ja_104:header</title>
<g id="a_edge19"><a xlink:title="Ja_149 &#45;&#45;&gt; Ja_104">
<path fill="none" stroke="#000000" d="M660,-391.5C775.45,-391.5 615.72,-209.9 704,-135.5 791.34,-61.89 848.57,-115.35 961,-135.5 981.86,-139.24 987.65,-150.5 1003.56,-154.26"/>
<polygon fill="#000000" stroke="#000000" points="1003.18,-157.74 1013.5,-155.34 1003.93,-150.78 1003.18,-157.74"/>
</a>
</g>
</g>
<!-- Node_Ja_149&#45;&gt;Node_Ja_105 -->
<g id="edge1" class="edge">
<title>Node_Ja_149:e&#45;&gt;Node_Ja_105:header</title>
<g id="a_edge1"><a xlink:title="Ja_149 &#45;&#45;&gt; Ja_105">
<path fill="none" stroke="#000000" d="M660,-193.5C753.62,-193.5 632.79,-338.72 704,-399.5 803.67,-484.57 868.4,-419.43 995.71,-415.67"/>
<polygon fill="#000000" stroke="#000000" points="995.54,-419.17 1005.49,-415.52 995.44,-412.17 995.54,-419.17"/>
</a>
</g>
</g>
<!-- Node_Ja_149&#45;&gt;Node_Ja_105 -->
<g id="edge4" class="edge">
<title>Node_Ja_149:e&#45;&gt;Node_Ja_105:header</title>
<g id="a_edge4"><a xlink:title="Ja_149 &#45;&#45;&gt; Ja_105">
<path fill="none" stroke="#000000" d="M660,-647.5C715.56,-647.5 661.57,-566.36 704,-530.5 792.88,-455.39 863.26,-543.64 961,-480.5 986.9,-463.77 975.73,-426.86 995.81,-417.63"/>
<polygon fill="#000000" stroke="#000000" points="996.34,-421.09 1005.51,-415.78 995.04,-414.21 996.34,-421.09"/>
</a>
</g>
</g>
<!-- Node_Ja_149&#45;&gt;Node_Ja_105 -->
<g id="edge20" class="edge">
<title>Node_Ja_149:e&#45;&gt;Node_Ja_105:header</title>
<g id="a_edge20"><a xlink:title="Ja_149 &#45;&#45;&gt; Ja_105">
<path fill="none" stroke="#000000" d="M660,-467.5C794.58,-467.5 830.62,-467.85 961,-434.5 978.08,-430.13 983.1,-420.66 995.63,-416.99"/>
<polygon fill="#000000" stroke="#000000" points="996.04,-420.47 1005.5,-415.7 995.13,-413.53 996.04,-420.47"/>
</a>
</g>
</g>
<!-- Node_Ja_123 -->
<g id="node6" class="node">
<title>Node_Ja_123</title>
<g id="a_node6"><a xlink:title="proto.Key">
<polygon fill="#fffaf0" stroke="none" points="712,-543.5 712,-729.5 953,-729.5 953,-543.5 712,-543.5"/>
<polygon fill="#e31a1c" stroke="none" points="713,-710.5 713,-728.5 952,-728.5 952,-710.5 713,-710.5"/>
<text text-anchor="start" x="926.75" y="-717.05" font-family="Verdana" font-weight="bold" font-size="11.00">Key</text>
<polygon fill="#fdbf6f" stroke="none" points="713,-692.5 713,-710.5 952,-710.5 952,-692.5 713,-692.5"/>
<text text-anchor="start" x="715" y="-698.05" font-family="Verdana" font-size="11.00">key</text>
<polygon fill="#fdbf6f" stroke="none" points="713,-674.5 713,-692.5 717,-692.5 717,-674.5 713,-674.5"/>
<text text-anchor="start" x="718.62" y="-680.05" font-family="Verdana" font-size="11.00">1</text>
<text text-anchor="start" x="729" y="-680.05" font-family="Verdana" font-size="11.00">contractID</text>
<polygon fill="#fb9a99" stroke="none" points="864,-674.5 864,-692.5 952,-692.5 952,-674.5 864,-674.5"/>
<text text-anchor="start" x="881.75" y="-681.05" font-family="Verdana" font-weight="bold" font-size="11.00">ContractID</text>
<polygon fill="#fdbf6f" stroke="none" points="713,-656.5 713,-674.5 717,-674.5 717,-656.5 713,-656.5"/>
<text text-anchor="start" x="718.62" y="-662.05" font-family="Verdana" font-size="11.00">2</text>
<text text-anchor="start" x="729" y="-662.05" font-family="Verdana" font-size="11.00">ed25519</text>
<polygon fill="#a6cee3" stroke="none" points="864,-656.5 864,-674.5 952,-674.5 952,-656.5 864,-656.5"/>
<text text-anchor="start" x="919.25" y="-663.05" font-family="Verdana" font-style="italic" font-size="11.00">bytes</text>
<polygon fill="#fdbf6f" stroke="none" points="713,-638.5 713,-656.5 717,-656.5 717,-638.5 713,-638.5"/>
<text text-anchor="start" x="718.62" y="-644.05" font-family="Verdana" font-size="11.00">3</text>
<text text-anchor="start" x="729" y="-644.05" font-family="Verdana" font-size="11.00">RSA_3072</text>
<polygon fill="#a6cee3" stroke="none" points="864,-638.5 864,-656.5 952,-656.5 952,-638.5 864,-638.5"/>
<text text-anchor="start" x="919.25" y="-645.05" font-family="Verdana" font-style="italic" font-size="11.00">bytes</text>
<polygon fill="#fdbf6f" stroke="none" points="713,-620.5 713,-638.5 717,-638.5 717,-620.5 713,-620.5"/>
<text text-anchor="start" x="718.62" y="-626.05" font-family="Verdana" font-size="11.00">4</text>
<text text-anchor="start" x="729" y="-626.05" font-family="Verdana" font-size="11.00">ECDSA_384</text>
<polygon fill="#a6cee3" stroke="none" points="864,-620.5 864,-638.5 952,-638.5 952,-620.5 864,-620.5"/>
<text text-anchor="start" x="919.25" y="-627.05" font-family="Verdana" font-style="italic" font-size="11.00">bytes</text>
<polygon fill="#fdbf6f" stroke="none" points="713,-602.5 713,-620.5 717,-620.5 717,-602.5 713,-602.5"/>
<text text-anchor="start" x="718.62" y="-608.05" font-family="Verdana" font-size="11.00">5</text>
<text text-anchor="start" x="729" y="-608.05" font-family="Verdana" font-size="11.00">thresholdKey</text>
<polygon fill="#fb9a99" stroke="none" points="864,-602.5 864,-620.5 952,-620.5 952,-602.5 864,-602.5"/>
<text text-anchor="start" x="866" y="-609.05" font-family="Verdana" font-weight="bold" font-size="11.00">ThresholdKey</text>
<polygon fill="#fdbf6f" stroke="none" points="713,-584.5 713,-602.5 717,-602.5 717,-584.5 713,-584.5"/>
<text text-anchor="start" x="718.62" y="-590.05" font-family="Verdana" font-size="11.00">6</text>
<text text-anchor="start" x="729" y="-590.05" font-family="Verdana" font-size="11.00">keyList</text>
<polygon fill="#fb9a99" stroke="none" points="864,-584.5 864,-602.5 952,-602.5 952,-584.5 864,-584.5"/>
<text text-anchor="start" x="904.25" y="-591.05" font-family="Verdana" font-weight="bold" font-size="11.00">KeyList</text>
<polygon fill="#fdbf6f" stroke="none" points="713,-566.5 713,-584.5 717,-584.5 717,-566.5 713,-566.5"/>
<text text-anchor="start" x="718.62" y="-572.05" font-family="Verdana" font-size="11.00">7</text>
<text text-anchor="start" x="729" y="-572.05" font-family="Verdana" font-size="11.00">ECDSA_secp256k1</text>
<polygon fill="#a6cee3" stroke="none" points="864,-566.5 864,-584.5 952,-584.5 952,-566.5 864,-566.5"/>
<text text-anchor="start" x="919.25" y="-573.05" font-family="Verdana" font-style="italic" font-size="11.00">bytes</text>
<polygon fill="#fdbf6f" stroke="none" points="713,-548.5 713,-566.5 717,-566.5 717,-548.5 713,-548.5"/>
<text text-anchor="start" x="718.62" y="-554.05" font-family="Verdana" font-size="11.00">8</text>
<text text-anchor="start" x="728.75" y="-554.05" font-family="Verdana" font-size="11.00">delegatable_contract_id</text>
<polygon fill="#fb9a99" stroke="none" points="864,-548.5 864,-566.5 952,-566.5 952,-548.5 864,-548.5"/>
<text text-anchor="start" x="881.75" y="-555.05" font-family="Verdana" font-weight="bold" font-size="11.00">ContractID</text>
<polygon fill="#fdbf6f" stroke="none" points="713,-544.5 713,-548.5 952,-548.5 952,-544.5 713,-544.5"/>
<polygon fill="none" stroke="black" points="712,-543.5 712,-729.5 953,-729.5 953,-543.5 712,-543.5"/>
</a>
</g>
</g>
<!-- Node_Ja_149&#45;&gt;Node_Ja_123 -->
<g id="edge21" class="edge">
<title>Node_Ja_149:e&#45;&gt;Node_Ja_123:header</title>
<g id="a_edge21"><a xlink:title="Ja_149 &#45;&#45;&gt; Ja_123">
<path fill="none" stroke="#000000" d="M660,-611.5C708.82,-611.5 666.59,-702.51 700.47,-717.44"/>
<polygon fill="#000000" stroke="#000000" points="699.54,-720.82 710.01,-719.22 700.83,-713.94 699.54,-720.82"/>
</a>
</g>
</g>
<!-- Node_Ja_106 -->
<g id="node7" class="node">
<title>Node_Ja_106</title>
<g id="a_node7"><a xlink:title="proto.NftID">
<polygon fill="#fffaf0" stroke="none" points="755.5,-28.5 755.5,-84.5 909.5,-84.5 909.5,-28.5 755.5,-28.5"/>
<polygon fill="#e31a1c" stroke="none" points="756.5,-65.5 756.5,-83.5 908.5,-83.5 908.5,-65.5 756.5,-65.5"/>
<text text-anchor="start" x="872.75" y="-72.05" font-family="Verdana" font-weight="bold" font-size="11.00">NftID</text>
<text text-anchor="start" x="762.12" y="-53.05" font-family="Verdana" font-size="11.00">1</text>
<text text-anchor="start" x="772.5" y="-53.05" font-family="Verdana" font-size="11.00">token_ID</text>
<polygon fill="#fb9a99" stroke="none" points="852.5,-47.5 852.5,-65.5 908.5,-65.5 908.5,-47.5 852.5,-47.5"/>
<text text-anchor="start" x="854.25" y="-54.05" font-family="Verdana" font-weight="bold" font-size="11.00">TokenID</text>
<text text-anchor="start" x="762.12" y="-35.05" font-family="Verdana" font-size="11.00">2</text>
<text text-anchor="start" x="772.12" y="-35.05" font-family="Verdana" font-size="11.00">serial_number</text>
<polygon fill="#a6cee3" stroke="none" points="852.5,-29.5 852.5,-47.5 908.5,-47.5 908.5,-29.5 852.5,-29.5"/>
<text text-anchor="start" x="878.75" y="-36.05" font-family="Verdana" font-style="italic" font-size="11.00">int64</text>
<polygon fill="none" stroke="black" points="755.5,-28.5 755.5,-84.5 909.5,-84.5 909.5,-28.5 755.5,-28.5"/>
</a>
</g>
</g>
<!-- Node_Ja_149&#45;&gt;Node_Ja_106 -->
<g id="edge10" class="edge">
<title>Node_Ja_149:e&#45;&gt;Node_Ja_106:header</title>
<g id="a_edge10"><a xlink:title="Ja_149 &#45;&#45;&gt; Ja_106">
<path fill="none" stroke="#000000" d="M660,-373.5C721.01,-373.5 668.71,-152.27 704,-102.5 716.66,-84.65 726,-77.03 744.11,-75.05"/>
<polygon fill="#000000" stroke="#000000" points="744.17,-78.55 753.99,-74.57 743.83,-71.56 744.17,-78.55"/>
</a>
</g>
</g>
<!-- Node_Ja_152 -->
<g id="node10" class="node">
<title>Node_Ja_152</title>
<g id="a_node10"><a xlink:title="proto.AccountCryptoAllowance">
<polygon fill="#fffaf0" stroke="none" points="753,-330.5 753,-386.5 912,-386.5 912,-330.5 753,-330.5"/>
<polygon fill="#e31a1c" stroke="none" points="754,-367.5 754,-385.5 911,-385.5 911,-367.5 754,-367.5"/>
<text text-anchor="start" x="755.62" y="-374.05" font-family="Verdana" font-weight="bold" font-size="11.00">AccountCryptoAllowance</text>
<text text-anchor="start" x="767.25" y="-355.05" font-family="Verdana" font-size="11.00">1</text>
<text text-anchor="start" x="778" y="-355.05" font-family="Verdana" font-size="11.00">spender_id</text>
<polygon fill="#fb9a99" stroke="none" points="841,-349.5 841,-367.5 911,-367.5 911,-349.5 841,-349.5"/>
<text text-anchor="start" x="844.5" y="-356.05" font-family="Verdana" font-weight="bold" font-size="11.00">AccountID</text>
<text text-anchor="start" x="767.25" y="-337.05" font-family="Verdana" font-size="11.00">2</text>
<text text-anchor="start" x="778" y="-337.05" font-family="Verdana" font-size="11.00">amount</text>
<polygon fill="#a6cee3" stroke="none" points="841,-331.5 841,-349.5 911,-349.5 911,-331.5 841,-331.5"/>
<text text-anchor="start" x="881.25" y="-338.05" font-family="Verdana" font-style="italic" font-size="11.00">int64</text>
<polygon fill="none" stroke="black" points="753,-330.5 753,-386.5 912,-386.5 912,-330.5 753,-330.5"/>
</a>
</g>
</g>
<!-- Node_Ja_149&#45;&gt;Node_Ja_152 -->
<g id="edge9" class="edge">
<title>Node_Ja_149:e&#45;&gt;Node_Ja_152:header</title>
<g id="a_edge9"><a xlink:title="Ja_149 &#45;&#45;&gt; Ja_152">
<path fill="none" stroke="#000000" d="M660,-139.5C741.49,-139.5 667.44,-244.67 704,-317.5 717.32,-344.05 718.47,-369.31 741.29,-375.21"/>
<polygon fill="#000000" stroke="#000000" points="740.66,-378.66 751,-376.33 741.46,-371.71 740.66,-378.66"/>
</a>
</g>
</g>
<!-- Node_Ja_151 -->
<g id="node11" class="node">
<title>Node_Ja_151</title>
<g id="a_node11"><a xlink:title="proto.AccountFungibleTokenAllowance">
<polygon fill="#fffaf0" stroke="none" points="728.5,-148.5 728.5,-222.5 936.5,-222.5 936.5,-148.5 728.5,-148.5"/>
<polygon fill="#e31a1c" stroke="none" points="729.5,-203.5 729.5,-221.5 935.5,-221.5 935.5,-203.5 729.5,-203.5"/>
<text text-anchor="start" x="731.25" y="-210.05" font-family="Verdana" font-weight="bold" font-size="11.00">AccountFungibleTokenAllowance</text>
<text text-anchor="start" x="779.75" y="-191.05" font-family="Verdana" font-size="11.00">1</text>
<text text-anchor="start" x="790.5" y="-191.05" font-family="Verdana" font-size="11.00">token_id</text>
<polygon fill="#fb9a99" stroke="none" points="859.5,-185.5 859.5,-203.5 935.5,-203.5 935.5,-185.5 859.5,-185.5"/>
<text text-anchor="start" x="881" y="-192.05" font-family="Verdana" font-weight="bold" font-size="11.00">TokenID</text>
<text text-anchor="start" x="779.75" y="-173.05" font-family="Verdana" font-size="11.00">2</text>
<text text-anchor="start" x="790.5" y="-173.05" font-family="Verdana" font-size="11.00">spender_id</text>
<polygon fill="#fb9a99" stroke="none" points="859.5,-167.5 859.5,-185.5 935.5,-185.5 935.5,-167.5 859.5,-167.5"/>
<text text-anchor="start" x="869" y="-174.05" font-family="Verdana" font-weight="bold" font-size="11.00">AccountID</text>
<text text-anchor="start" x="779.75" y="-155.05" font-family="Verdana" font-size="11.00">3</text>
<text text-anchor="start" x="790.5" y="-155.05" font-family="Verdana" font-size="11.00">amount</text>
<polygon fill="#a6cee3" stroke="none" points="859.5,-149.5 859.5,-167.5 935.5,-167.5 935.5,-149.5 859.5,-149.5"/>
<text text-anchor="start" x="905.75" y="-156.05" font-family="Verdana" font-style="italic" font-size="11.00">int64</text>
<polygon fill="none" stroke="black" points="728.5,-148.5 728.5,-222.5 936.5,-222.5 936.5,-148.5 728.5,-148.5"/>
</a>
</g>
</g>
<!-- Node_Ja_149&#45;&gt;Node_Ja_151 -->
<g id="edge5" class="edge">
<title>Node_Ja_149:e&#45;&gt;Node_Ja_151:header</title>
<g id="a_edge5"><a xlink:title="Ja_149 &#45;&#45;&gt; Ja_151">
<path fill="none" stroke="#000000" d="M660,-103.5C712.86,-103.5 677.68,-196.53 717.13,-210.7"/>
<polygon fill="#000000" stroke="#000000" points="716.58,-214.16 727.01,-212.26 717.68,-207.24 716.58,-214.16"/>
</a>
</g>
</g>
<!-- Node_Ja_123&#45;&gt;Node_Ja_124 -->
<g id="edge13" class="edge">
<title>Node_Ja_123:e&#45;&gt;Node_Ja_124:header</title>
<g id="a_edge13"><a xlink:title="Ja_123 &#45;&#45;&gt; Ja_124">
<path fill="none" stroke="#000000" d="M953.5,-611.5C985.5,-611.5 975.29,-561.97 952.5,-539.5 932.84,-520.11 725.09,-521.68 704,-539.5 630.67,-601.47 740.4,-689.45 668,-752.5 489.85,-907.65 371.95,-772.99 139.51,-768.61"/>
<polygon fill="#000000" stroke="#000000" points="139.55,-765.11 129.51,-768.51 139.48,-772.11 139.55,-765.11"/>
</a>
</g>
</g>
<!-- Node_Ja_123&#45;&gt;Node_Ja_125 -->
<g id="edge2" class="edge">
<title>Node_Ja_123:e&#45;&gt;Node_Ja_125:header</title>
<g id="a_edge2"><a xlink:title="Ja_123 &#45;&#45;&gt; Ja_125">
<path fill="none" stroke="#000000" d="M953.5,-593.5C977.5,-593.5 969.63,-556.32 952.5,-539.5 932.8,-520.16 725.7,-522.42 704,-539.5 650.47,-581.64 717.03,-641.2 668,-688.5 605.21,-749.08 562.01,-731.26 478.5,-729.61"/>
<polygon fill="#000000" stroke="#000000" points="478.55,-726.12 468.51,-729.52 478.48,-733.12 478.55,-726.12"/>
</a>
</g>
</g>
<!-- Node_Ja_108 -->
<g id="node9" class="node">
<title>Node_Ja_108</title>
<g id="a_node9"><a xlink:title="proto.ContractID">
<polygon fill="#fffaf0" stroke="none" points="1005,-472.5 1005,-586.5 1133,-586.5 1133,-472.5 1005,-472.5"/>
<polygon fill="#e31a1c" stroke="none" points="1006,-567.5 1006,-585.5 1132,-585.5 1132,-567.5 1006,-567.5"/>
<text text-anchor="start" x="1061.75" y="-574.05" font-family="Verdana" font-weight="bold" font-size="11.00">ContractID</text>
<text text-anchor="start" x="1011.62" y="-555.05" font-family="Verdana" font-size="11.00">1</text>
<text text-anchor="start" x="1022" y="-555.05" font-family="Verdana" font-size="11.00">shardNum</text>
<polygon fill="#a6cee3" stroke="none" points="1098,-549.5 1098,-567.5 1132,-567.5 1132,-549.5 1098,-549.5"/>
<text text-anchor="start" x="1102.25" y="-556.05" font-family="Verdana" font-style="italic" font-size="11.00">int64</text>
<text text-anchor="start" x="1011.62" y="-537.05" font-family="Verdana" font-size="11.00">2</text>
<text text-anchor="start" x="1022" y="-537.05" font-family="Verdana" font-size="11.00">realmNum</text>
<polygon fill="#a6cee3" stroke="none" points="1098,-531.5 1098,-549.5 1132,-549.5 1132,-531.5 1098,-531.5"/>
<text text-anchor="start" x="1102.25" y="-538.05" font-family="Verdana" font-style="italic" font-size="11.00">int64</text>
<polygon fill="#fdbf6f" stroke="none" points="1006,-513.5 1006,-531.5 1132,-531.5 1132,-513.5 1006,-513.5"/>
<text text-anchor="start" x="1008" y="-519.05" font-family="Verdana" font-size="11.00">contract</text>
<polygon fill="#fdbf6f" stroke="none" points="1006,-495.5 1006,-513.5 1010,-513.5 1010,-495.5 1006,-495.5"/>
<text text-anchor="start" x="1011.62" y="-501.05" font-family="Verdana" font-size="11.00">3</text>
<text text-anchor="start" x="1022" y="-501.05" font-family="Verdana" font-size="11.00">contractNum</text>
<polygon fill="#a6cee3" stroke="none" points="1098,-495.5 1098,-513.5 1132,-513.5 1132,-495.5 1098,-495.5"/>
<text text-anchor="start" x="1102.25" y="-502.05" font-family="Verdana" font-style="italic" font-size="11.00">int64</text>
<polygon fill="#fdbf6f" stroke="none" points="1006,-477.5 1006,-495.5 1010,-495.5 1010,-477.5 1006,-477.5"/>
<text text-anchor="start" x="1011.62" y="-483.05" font-family="Verdana" font-size="11.00">4</text>
<text text-anchor="start" x="1021.88" y="-483.05" font-family="Verdana" font-size="11.00">evm_address</text>
<polygon fill="#a6cee3" stroke="none" points="1098,-477.5 1098,-495.5 1132,-495.5 1132,-477.5 1098,-477.5"/>
<text text-anchor="start" x="1099.62" y="-484.05" font-family="Verdana" font-style="italic" font-size="11.00">bytes</text>
<polygon fill="#fdbf6f" stroke="none" points="1006,-473.5 1006,-477.5 1132,-477.5 1132,-473.5 1006,-473.5"/>
<polygon fill="none" stroke="black" points="1005,-472.5 1005,-586.5 1133,-586.5 1133,-472.5 1005,-472.5"/>
</a>
</g>
</g>
<!-- Node_Ja_123&#45;&gt;Node_Ja_108 -->
<g id="edge6" class="edge">
<title>Node_Ja_123:e&#45;&gt;Node_Ja_108:header</title>
<g id="a_edge6"><a xlink:title="Ja_123 &#45;&#45;&gt; Ja_108">
<path fill="none" stroke="#000000" d="M953.5,-683.5C1001.95,-683.5 960.37,-593.33 994.05,-578.54"/>
<polygon fill="#000000" stroke="#000000" points="994.32,-582.05 1003.51,-576.78 993.04,-575.17 994.32,-582.05"/>
</a>
</g>
</g>
<!-- Node_Ja_123&#45;&gt;Node_Ja_108 -->
<g id="edge12" class="edge">
<title>Node_Ja_123:e&#45;&gt;Node_Ja_108:header</title>
<g id="a_edge12"><a xlink:title="Ja_123 &#45;&#45;&gt; Ja_108">
<path fill="none" stroke="#000000" d="M953.5,-557.5C973.51,-557.5 978.93,-570.29 993.7,-574.88"/>
<polygon fill="#000000" stroke="#000000" points="993.11,-578.33 1003.5,-576.29 994.1,-571.4 993.11,-578.33"/>
</a>
</g>
</g>
<!-- Node_Ja_106&#45;&gt;Node_Ja_104 -->
<g id="edge14" class="edge">
<title>Node_Ja_106:e&#45;&gt;Node_Ja_104:header</title>
<g id="a_edge14"><a xlink:title="Ja_106 &#45;&#45;&gt; Ja_104">
<path fill="none" stroke="#000000" d="M909.5,-56.5C940.19,-56.5 938.6,-81.52 961,-102.5 982.38,-122.52 981.97,-147.88 1003.74,-154.08"/>
<polygon fill="#000000" stroke="#000000" points="1003.14,-157.54 1013.5,-155.31 1004.01,-150.59 1003.14,-157.54"/>
</a>
</g>
</g>
<!-- Node_Ja_125&#45;&gt;Node_Ja_123 -->
<g id="edge15" class="edge">
<title>Node_Ja_125:e&#45;&gt;Node_Ja_123:header</title>
<g id="a_edge15"><a xlink:title="Ja_125 &#45;&#45;&gt; Ja_123">
<path fill="none" stroke="#000000" d="M467,-711.5C571.8,-711.5 600.71,-718.93 700.03,-719.47"/>
<polygon fill="#000000" stroke="#000000" points="699.98,-722.97 709.99,-719.5 700,-715.97 699.98,-722.97"/>
</a>
</g>
</g>
<!-- Node_Ja_152&#45;&gt;Node_Ja_105 -->
<g id="edge3" class="edge">
<title>Node_Ja_152:e&#45;&gt;Node_Ja_105:header</title>
<g id="a_edge3"><a xlink:title="Ja_152 &#45;&#45;&gt; Ja_105">
<path fill="none" stroke="#000000" d="M912.5,-358.5C957.53,-358.5 958.19,-406.53 995.93,-414.41"/>
<polygon fill="#000000" stroke="#000000" points="995.2,-417.86 1005.49,-415.35 995.88,-410.89 995.2,-417.86"/>
</a>
</g>
</g>
<!-- Node_Ja_151&#45;&gt;Node_Ja_104 -->
<g id="edge8" class="edge">
<title>Node_Ja_151:e&#45;&gt;Node_Ja_104:header</title>
<g id="a_edge8"><a xlink:title="Ja_151 &#45;&#45;&gt; Ja_104">
<path fill="none" stroke="#000000" d="M936.5,-194.5C971.35,-194.5 975.49,-163.29 1003.86,-156.71"/>
<polygon fill="#000000" stroke="#000000" points="1003.93,-160.22 1013.5,-155.66 1003.18,-153.26 1003.93,-160.22"/>
</a>
</g>
</g>
<!-- Node_Ja_151&#45;&gt;Node_Ja_105 -->
<g id="edge18" class="edge">
<title>Node_Ja_151:e&#45;&gt;Node_Ja_105:header</title>
<g id="a_edge18"><a xlink:title="Ja_151 &#45;&#45;&gt; Ja_105">
<path fill="none" stroke="#000000" d="M936.5,-176.5C1043.14,-176.5 907.1,-398.09 995.73,-414.54"/>
<polygon fill="#000000" stroke="#000000" points="995.23,-418.01 1005.49,-415.37 995.83,-411.03 995.23,-418.01"/>
</a>
</g>
</g>
</g>
</svg>
