<?xml version="1.0" encoding="UTF-8" standalone="no"?>
<!DOCTYPE svg PUBLIC "-//W3C//DTD SVG 1.1//EN"
 "http://www.w3.org/Graphics/SVG/1.1/DTD/svg11.dtd">
<!-- Generated by graphviz version 9.0.0 (20230911.1827)
 -->
<!-- Title: BlockInfo Pages: 1 -->
<svg width="450pt" height="169pt"
 viewBox="0.00 0.00 450.00 168.50" xmlns="http://www.w3.org/2000/svg" xmlns:xlink="http://www.w3.org/1999/xlink">
<g id="graph0" class="graph" transform="scale(1 1) rotate(0) translate(4 164.5)">
<title>BlockInfo</title>
<g id="a_graph0"><a xlink:title="proto">
<text text-anchor="middle" x="221" y="-7.2" font-family="Times,serif" font-size="14.00">proto</text>
</a>
</g>
<!-- Node_Ja_102 -->
<g id="node1" class="node">
<title>Node_Ja_102</title>
<g id="a_node1"><a xlink:title="proto.BlockInfo">
<polygon fill="#fffaf0" stroke="none" points="8,-28.5 8,-156.5 286,-156.5 286,-28.5 8,-28.5"/>
<polygon fill="#e31a1c" stroke="none" points="9,-137.5 9,-155.5 285,-155.5 285,-137.5 9,-137.5"/>
<text text-anchor="start" x="223.75" y="-144.05" font-family="Verdana" font-weight="bold" font-size="11.00">BlockInfo</text>
<text text-anchor="start" x="14.62" y="-125.05" font-family="Verdana" font-size="11.00">1</text>
<text text-anchor="start" x="25" y="-125.05" font-family="Verdana" font-size="11.00">last_block_number</text>
<polygon fill="#a6cee3" stroke="none" points="212,-119.5 212,-137.5 285,-137.5 285,-119.5 212,-119.5"/>
<text text-anchor="start" x="255.25" y="-126.05" font-family="Verdana" font-style="italic" font-size="11.00">int64</text>
<text text-anchor="start" x="14.62" y="-107.05" font-family="Verdana" font-size="11.00">2</text>
<text text-anchor="start" x="25" y="-107.05" font-family="Verdana" font-size="11.00">first_cons_time_of_last_block</text>
<polygon fill="#fb9a99" stroke="none" points="212,-101.5 212,-119.5 285,-119.5 285,-101.5 212,-101.5"/>
<text text-anchor="start" x="213.62" y="-108.05" font-family="Verdana" font-weight="bold" font-size="11.00">Timestamp</text>
<text text-anchor="start" x="14.62" y="-89.05" font-family="Verdana" font-size="11.00">3</text>
<text text-anchor="start" x="25" y="-89.05" font-family="Verdana" font-size="11.00">block_hashes</text>
<polygon fill="#a6cee3" stroke="none" points="212,-83.5 212,-101.5 285,-101.5 285,-83.5 212,-83.5"/>
<text text-anchor="start" x="252.25" y="-90.05" font-family="Verdana" font-style="italic" font-size="11.00">bytes</text>
<text text-anchor="start" x="14.62" y="-71.05" font-family="Verdana" font-size="11.00">4</text>
<text text-anchor="start" x="25" y="-71.05" font-family="Verdana" font-size="11.00">cons_time_of_last_handled_txn</text>
<polygon fill="#fb9a99" stroke="none" points="212,-65.5 212,-83.5 285,-83.5 285,-65.5 212,-65.5"/>
<text text-anchor="start" x="213.62" y="-72.05" font-family="Verdana" font-weight="bold" font-size="11.00">Timestamp</text>
<text text-anchor="start" x="14.62" y="-53.05" font-family="Verdana" font-size="11.00">5</text>
<text text-anchor="start" x="25" y="-53.05" font-family="Verdana" font-size="11.00">migration_records_streamed</text>
<polygon fill="#a6cee3" stroke="none" points="212,-47.5 212,-65.5 285,-65.5 285,-47.5 212,-47.5"/>
<text text-anchor="start" x="259.75" y="-54.05" font-family="Verdana" font-style="italic" font-size="11.00">bool</text>
<text text-anchor="start" x="14.62" y="-35.05" font-family="Verdana" font-size="11.00">6</text>
<text text-anchor="start" x="24.88" y="-35.05" font-family="Verdana" font-size="11.00">first_cons_time_of_current_block</text>
<polygon fill="#fb9a99" stroke="none" points="212,-29.5 212,-47.5 285,-47.5 285,-29.5 212,-29.5"/>
<text text-anchor="start" x="213.62" y="-36.05" font-family="Verdana" font-weight="bold" font-size="11.00">Timestamp</text>
<polygon fill="none" stroke="black" points="8,-28.5 8,-156.5 286,-156.5 286,-28.5 8,-28.5"/>
</a>
</g>
</g>
<!-- Node_Ja_100 -->
<g id="node2" class="node">
<title>Node_Ja_100</title>
<g id="a_node2"><a xlink:title="proto.Timestamp">
<polygon fill="#fffaf0" stroke="none" points="338,-28.5 338,-84.5 434,-84.5 434,-28.5 338,-28.5"/>
<polygon fill="#e31a1c" stroke="none" points="339,-65.5 339,-83.5 433,-83.5 433,-65.5 339,-65.5"/>
<text text-anchor="start" x="361.25" y="-72.05" font-family="Verdana" font-weight="bold" font-size="11.00">Timestamp</text>
<text text-anchor="start" x="344.62" y="-53.05" font-family="Verdana" font-size="11.00">1</text>
<text text-anchor="start" x="355" y="-53.05" font-family="Verdana" font-size="11.00">seconds</text>
<polygon fill="#a6cee3" stroke="none" points="402,-47.5 402,-65.5 433,-65.5 433,-47.5 402,-47.5"/>
<text text-anchor="start" x="403.62" y="-54.05" font-family="Verdana" font-style="italic" font-size="11.00">int64</text>
<text text-anchor="start" x="344.62" y="-35.05" font-family="Verdana" font-size="11.00">2</text>
<text text-anchor="start" x="355" y="-35.05" font-family="Verdana" font-size="11.00">nanos</text>
<polygon fill="#a6cee3" stroke="none" points="402,-29.5 402,-47.5 433,-47.5 433,-29.5 402,-29.5"/>
<text text-anchor="start" x="403.62" y="-36.05" font-family="Verdana" font-style="italic" font-size="11.00">int32</text>
<polygon fill="none" stroke="black" points="338,-28.5 338,-84.5 434,-84.5 434,-28.5 338,-28.5"/>
</a>
</g>
</g>
<!-- Node_Ja_102&#45;&gt;Node_Ja_100 -->
<g id="edge1" class="edge">
<title>Node_Ja_102:e&#45;&gt;Node_Ja_100:header</title>
<g id="a_edge1"><a xlink:title="Ja_102 &#45;&#45;&gt; Ja_100">
<path fill="none" stroke="#000000" d="M286,-38.5C309.72,-38.5 310.42,-64.13 326.94,-72.14"/>
<polygon fill="#000000" stroke="#000000" points="326.01,-75.52 336.52,-74.18 327.47,-68.67 326.01,-75.52"/>
</a>
</g>
</g>
<!-- Node_Ja_102&#45;&gt;Node_Ja_100 -->
<g id="edge2" class="edge">
<title>Node_Ja_102:e&#45;&gt;Node_Ja_100:header</title>
<g id="a_edge2"><a xlink:title="Ja_102 &#45;&#45;&gt; Ja_100">
<path fill="none" stroke="#000000" d="M286,-110.5C309.72,-110.5 310.42,-84.87 326.94,-76.86"/>
<polygon fill="#000000" stroke="#000000" points="327.47,-80.33 336.52,-74.82 326.01,-73.48 327.47,-80.33"/>
</a>
</g>
</g>
<!-- Node_Ja_102&#45;&gt;Node_Ja_100 -->
<g id="edge3" class="edge">
<title>Node_Ja_102:e&#45;&gt;Node_Ja_100:header</title>
<g id="a_edge3"><a xlink:title="Ja_102 &#45;&#45;&gt; Ja_100">
<path fill="none" stroke="#000000" d="M286,-74.5C304.78,-74.5 312.11,-74.5 326.6,-74.5"/>
<polygon fill="#000000" stroke="#000000" points="326.49,-78 336.49,-74.5 326.49,-71 326.49,-78"/>
</a>
</g>
</g>
</g>
</svg>
