<?xml version="1.0" encoding="UTF-8" standalone="no"?>
<!DOCTYPE svg PUBLIC "-//W3C//DTD SVG 1.1//EN"
 "http://www.w3.org/Graphics/SVG/1.1/DTD/svg11.dtd">
<!-- Generated by graphviz version 9.0.0 (20230911.1827)
 -->
<!-- Title: Congestion Level Starts Pages: 1 -->
<svg width="398pt" height="124pt"
 viewBox="0.00 0.00 398.00 123.50" xmlns="http://www.w3.org/2000/svg" xmlns:xlink="http://www.w3.org/1999/xlink">
<g id="graph0" class="graph" transform="scale(1 1) rotate(0) translate(4 119.5)">
<title>Congestion Level Starts</title>
<g id="a_graph0"><a xlink:title="proto">
<text text-anchor="middle" x="195" y="-7.2" font-family="Times,serif" font-size="14.00">proto</text>
</a>
</g>
<!-- Node_Ja_100 -->
<g id="node1" class="node">
<title>Node_Ja_100</title>
<g id="a_node1"><a xlink:title="proto.Timestamp">
<polygon fill="#fffaf0" stroke="none" points="286,-28.5 286,-84.5 382,-84.5 382,-28.5 286,-28.5"/>
<polygon fill="#e31a1c" stroke="none" points="287,-65.5 287,-83.5 381,-83.5 381,-65.5 287,-65.5"/>
<text text-anchor="start" x="309.25" y="-72.05" font-family="Verdana" font-weight="bold" font-size="11.00">Timestamp</text>
<text text-anchor="start" x="292.62" y="-53.05" font-family="Verdana" font-size="11.00">1</text>
<text text-anchor="start" x="303" y="-53.05" font-family="Verdana" font-size="11.00">seconds</text>
<polygon fill="#a6cee3" stroke="none" points="350,-47.5 350,-65.5 381,-65.5 381,-47.5 350,-47.5"/>
<text text-anchor="start" x="351.62" y="-54.05" font-family="Verdana" font-style="italic" font-size="11.00">int64</text>
<text text-anchor="start" x="292.62" y="-35.05" font-family="Verdana" font-size="11.00">2</text>
<text text-anchor="start" x="303" y="-35.05" font-family="Verdana" font-size="11.00">nanos</text>
<polygon fill="#a6cee3" stroke="none" points="350,-29.5 350,-47.5 381,-47.5 381,-29.5 350,-29.5"/>
<text text-anchor="start" x="351.62" y="-36.05" font-family="Verdana" font-style="italic" font-size="11.00">int32</text>
<polygon fill="none" stroke="black" points="286,-28.5 286,-84.5 382,-84.5 382,-28.5 286,-28.5"/>
</a>
</g>
</g>
<!-- Node_Ja_102 -->
<g id="node2" class="node">
<title>Node_Ja_102</title>
<g id="a_node2"><a xlink:title="proto.CongestionLevelStarts">
<polygon fill="#fffaf0" stroke="none" points="8,-55.5 8,-111.5 234,-111.5 234,-55.5 8,-55.5"/>
<polygon fill="#e31a1c" stroke="none" points="9,-92.5 9,-110.5 233,-110.5 233,-92.5 9,-92.5"/>
<text text-anchor="start" x="91.5" y="-99.05" font-family="Verdana" font-weight="bold" font-size="11.00">CongestionLevelStarts</text>
<text text-anchor="start" x="10.62" y="-80.05" font-family="Verdana" font-size="11.00">[...]</text>
<text text-anchor="start" x="35.62" y="-80.05" font-family="Verdana" font-size="11.00">1</text>
<text text-anchor="start" x="45.75" y="-80.05" font-family="Verdana" font-size="11.00">generic_level_starts</text>
<polygon fill="#fb9a99" stroke="none" points="160,-74.5 160,-92.5 233,-92.5 233,-74.5 160,-74.5"/>
<text text-anchor="start" x="161.62" y="-81.05" font-family="Verdana" font-weight="bold" font-size="11.00">Timestamp</text>
<text text-anchor="start" x="10.62" y="-62.05" font-family="Verdana" font-size="11.00">[...]</text>
<text text-anchor="start" x="35.62" y="-62.05" font-family="Verdana" font-size="11.00">2</text>
<text text-anchor="start" x="46" y="-62.05" font-family="Verdana" font-size="11.00">gas_level_starts</text>
<polygon fill="#fb9a99" stroke="none" points="160,-56.5 160,-74.5 233,-74.5 233,-56.5 160,-56.5"/>
<text text-anchor="start" x="161.62" y="-63.05" font-family="Verdana" font-weight="bold" font-size="11.00">Timestamp</text>
<polygon fill="none" stroke="black" points="8,-55.5 8,-111.5 234,-111.5 234,-55.5 8,-55.5"/>
</a>
</g>
</g>
<!-- Node_Ja_102&#45;&gt;Node_Ja_100 -->
<g id="edge1" class="edge">
<title>Node_Ja_102:e&#45;&gt;Node_Ja_100:header</title>
<g id="a_edge1"><a xlink:title="Ja_102 &#45;&#45;&gt; Ja_100">
<path fill="none" stroke="#000000" d="M234,-83.5C253.24,-83.5 260.12,-77.44 274.92,-75.27"/>
<polygon fill="#000000" stroke="#000000" points="274.76,-78.79 284.49,-74.6 274.27,-71.8 274.76,-78.79"/>
</a>
</g>
</g>
<!-- Node_Ja_102&#45;&gt;Node_Ja_100 -->
<g id="edge2" class="edge">
<title>Node_Ja_102:e&#45;&gt;Node_Ja_100:header</title>
<g id="a_edge2"><a xlink:title="Ja_102 &#45;&#45;&gt; Ja_100">
<path fill="none" stroke="#000000" d="M234,-65.5C253.24,-65.5 260.12,-71.56 274.92,-73.73"/>
<polygon fill="#000000" stroke="#000000" points="274.27,-77.2 284.49,-74.4 274.76,-70.21 274.27,-77.2"/>
</a>
</g>
</g>
</g>
</svg>
