<?xml version="1.0" encoding="UTF-8" standalone="no"?>
<!DOCTYPE svg PUBLIC "-//W3C//DTD SVG 1.1//EN"
 "http://www.w3.org/Graphics/SVG/1.1/DTD/svg11.dtd">
<!-- Generated by graphviz version 9.0.0 (20230911.1827)
 -->
<!-- Title: File Pages: 1 -->
<svg width="940pt" height="399pt"
 viewBox="0.00 0.00 940.00 399.19" xmlns="http://www.w3.org/2000/svg" xmlns:xlink="http://www.w3.org/1999/xlink">
<g id="graph0" class="graph" transform="scale(1 1) rotate(0) translate(4 395.19)">
<title>File</title>
<g id="a_graph0"><a xlink:title="proto">
<text text-anchor="middle" x="466" y="-7.2" font-family="Times,serif" font-size="14.00">proto</text>
</a>
</g>
<!-- Node_Ja_107 -->
<g id="node1" class="node">
<title>Node_Ja_107</title>
<g id="a_node1"><a xlink:title="proto.FileID">
<polygon fill="#fffaf0" stroke="none" points="343,-313.19 343,-387.19 451,-387.19 451,-313.19 343,-313.19"/>
<polygon fill="#e31a1c" stroke="none" points="344,-368.19 344,-386.19 450,-386.19 450,-368.19 344,-368.19"/>
<text text-anchor="start" x="410.5" y="-374.74" font-family="Verdana" font-weight="bold" font-size="11.00">FileID</text>
<text text-anchor="start" x="349.62" y="-355.74" font-family="Verdana" font-size="11.00">1</text>
<text text-anchor="start" x="360" y="-355.74" font-family="Verdana" font-size="11.00">shardNum</text>
<polygon fill="#a6cee3" stroke="none" points="419,-350.19 419,-368.19 450,-368.19 450,-350.19 419,-350.19"/>
<text text-anchor="start" x="420.62" y="-356.74" font-family="Verdana" font-style="italic" font-size="11.00">int64</text>
<text text-anchor="start" x="349.62" y="-337.74" font-family="Verdana" font-size="11.00">2</text>
<text text-anchor="start" x="360" y="-337.74" font-family="Verdana" font-size="11.00">realmNum</text>
<polygon fill="#a6cee3" stroke="none" points="419,-332.19 419,-350.19 450,-350.19 450,-332.19 419,-332.19"/>
<text text-anchor="start" x="420.62" y="-338.74" font-family="Verdana" font-style="italic" font-size="11.00">int64</text>
<text text-anchor="start" x="349.62" y="-319.74" font-family="Verdana" font-size="11.00">3</text>
<text text-anchor="start" x="360" y="-319.74" font-family="Verdana" font-size="11.00">fileNum</text>
<polygon fill="#a6cee3" stroke="none" points="419,-314.19 419,-332.19 450,-332.19 450,-314.19 419,-314.19"/>
<text text-anchor="start" x="420.62" y="-320.74" font-family="Verdana" font-style="italic" font-size="11.00">int64</text>
<polygon fill="none" stroke="black" points="343,-313.19 343,-387.19 451,-387.19 451,-313.19 343,-313.19"/>
</a>
</g>
</g>
<!-- Node_Ja_125 -->
<g id="node2" class="node">
<title>Node_Ja_125</title>
<g id="a_node2"><a xlink:title="proto.KeyList">
<polygon fill="#fffaf0" stroke="none" points="350,-249.19 350,-287.19 444,-287.19 444,-249.19 350,-249.19"/>
<polygon fill="#e31a1c" stroke="none" points="351,-268.19 351,-286.19 443,-286.19 443,-268.19 351,-268.19"/>
<text text-anchor="start" x="395.25" y="-274.74" font-family="Verdana" font-weight="bold" font-size="11.00">KeyList</text>
<text text-anchor="start" x="352.62" y="-255.74" font-family="Verdana" font-size="11.00">[...]</text>
<text text-anchor="start" x="377.62" y="-255.74" font-family="Verdana" font-size="11.00">1</text>
<text text-anchor="start" x="387.88" y="-255.74" font-family="Verdana" font-size="11.00">keys</text>
<polygon fill="#fb9a99" stroke="none" points="416,-250.19 416,-268.19 443,-268.19 443,-250.19 416,-250.19"/>
<text text-anchor="start" x="417.88" y="-256.74" font-family="Verdana" font-weight="bold" font-size="11.00">Key</text>
<polygon fill="none" stroke="black" points="350,-249.19 350,-287.19 444,-287.19 444,-249.19 350,-249.19"/>
</a>
</g>
</g>
<!-- Node_Ja_123 -->
<g id="node3" class="node">
<title>Node_Ja_123</title>
<g id="a_node3"><a xlink:title="proto.Key">
<polygon fill="#fffaf0" stroke="none" points="503,-83.19 503,-269.19 744,-269.19 744,-83.19 503,-83.19"/>
<polygon fill="#e31a1c" stroke="none" points="504,-250.19 504,-268.19 743,-268.19 743,-250.19 504,-250.19"/>
<text text-anchor="start" x="717.75" y="-256.74" font-family="Verdana" font-weight="bold" font-size="11.00">Key</text>
<polygon fill="#fdbf6f" stroke="none" points="504,-232.19 504,-250.19 743,-250.19 743,-232.19 504,-232.19"/>
<text text-anchor="start" x="506" y="-237.74" font-family="Verdana" font-size="11.00">key</text>
<polygon fill="#fdbf6f" stroke="none" points="504,-214.19 504,-232.19 508,-232.19 508,-214.19 504,-214.19"/>
<text text-anchor="start" x="509.62" y="-219.74" font-family="Verdana" font-size="11.00">1</text>
<text text-anchor="start" x="520" y="-219.74" font-family="Verdana" font-size="11.00">contractID</text>
<polygon fill="#fb9a99" stroke="none" points="655,-214.19 655,-232.19 743,-232.19 743,-214.19 655,-214.19"/>
<text text-anchor="start" x="672.75" y="-220.74" font-family="Verdana" font-weight="bold" font-size="11.00">ContractID</text>
<polygon fill="#fdbf6f" stroke="none" points="504,-196.19 504,-214.19 508,-214.19 508,-196.19 504,-196.19"/>
<text text-anchor="start" x="509.62" y="-201.74" font-family="Verdana" font-size="11.00">2</text>
<text text-anchor="start" x="520" y="-201.74" font-family="Verdana" font-size="11.00">ed25519</text>
<polygon fill="#a6cee3" stroke="none" points="655,-196.19 655,-214.19 743,-214.19 743,-196.19 655,-196.19"/>
<text text-anchor="start" x="710.25" y="-202.74" font-family="Verdana" font-style="italic" font-size="11.00">bytes</text>
<polygon fill="#fdbf6f" stroke="none" points="504,-178.19 504,-196.19 508,-196.19 508,-178.19 504,-178.19"/>
<text text-anchor="start" x="509.62" y="-183.74" font-family="Verdana" font-size="11.00">3</text>
<text text-anchor="start" x="520" y="-183.74" font-family="Verdana" font-size="11.00">RSA_3072</text>
<polygon fill="#a6cee3" stroke="none" points="655,-178.19 655,-196.19 743,-196.19 743,-178.19 655,-178.19"/>
<text text-anchor="start" x="710.25" y="-184.74" font-family="Verdana" font-style="italic" font-size="11.00">bytes</text>
<polygon fill="#fdbf6f" stroke="none" points="504,-160.19 504,-178.19 508,-178.19 508,-160.19 504,-160.19"/>
<text text-anchor="start" x="509.62" y="-165.74" font-family="Verdana" font-size="11.00">4</text>
<text text-anchor="start" x="520" y="-165.74" font-family="Verdana" font-size="11.00">ECDSA_384</text>
<polygon fill="#a6cee3" stroke="none" points="655,-160.19 655,-178.19 743,-178.19 743,-160.19 655,-160.19"/>
<text text-anchor="start" x="710.25" y="-166.74" font-family="Verdana" font-style="italic" font-size="11.00">bytes</text>
<polygon fill="#fdbf6f" stroke="none" points="504,-142.19 504,-160.19 508,-160.19 508,-142.19 504,-142.19"/>
<text text-anchor="start" x="509.62" y="-147.74" font-family="Verdana" font-size="11.00">5</text>
<text text-anchor="start" x="520" y="-147.74" font-family="Verdana" font-size="11.00">thresholdKey</text>
<polygon fill="#fb9a99" stroke="none" points="655,-142.19 655,-160.19 743,-160.19 743,-142.19 655,-142.19"/>
<text text-anchor="start" x="657" y="-148.74" font-family="Verdana" font-weight="bold" font-size="11.00">ThresholdKey</text>
<polygon fill="#fdbf6f" stroke="none" points="504,-124.19 504,-142.19 508,-142.19 508,-124.19 504,-124.19"/>
<text text-anchor="start" x="509.62" y="-129.74" font-family="Verdana" font-size="11.00">6</text>
<text text-anchor="start" x="520" y="-129.74" font-family="Verdana" font-size="11.00">keyList</text>
<polygon fill="#fb9a99" stroke="none" points="655,-124.19 655,-142.19 743,-142.19 743,-124.19 655,-124.19"/>
<text text-anchor="start" x="695.25" y="-130.74" font-family="Verdana" font-weight="bold" font-size="11.00">KeyList</text>
<polygon fill="#fdbf6f" stroke="none" points="504,-106.19 504,-124.19 508,-124.19 508,-106.19 504,-106.19"/>
<text text-anchor="start" x="509.62" y="-111.74" font-family="Verdana" font-size="11.00">7</text>
<text text-anchor="start" x="520" y="-111.74" font-family="Verdana" font-size="11.00">ECDSA_secp256k1</text>
<polygon fill="#a6cee3" stroke="none" points="655,-106.19 655,-124.19 743,-124.19 743,-106.19 655,-106.19"/>
<text text-anchor="start" x="710.25" y="-112.74" font-family="Verdana" font-style="italic" font-size="11.00">bytes</text>
<polygon fill="#fdbf6f" stroke="none" points="504,-88.19 504,-106.19 508,-106.19 508,-88.19 504,-88.19"/>
<text text-anchor="start" x="509.62" y="-93.74" font-family="Verdana" font-size="11.00">8</text>
<text text-anchor="start" x="519.75" y="-93.74" font-family="Verdana" font-size="11.00">delegatable_contract_id</text>
<polygon fill="#fb9a99" stroke="none" points="655,-88.19 655,-106.19 743,-106.19 743,-88.19 655,-88.19"/>
<text text-anchor="start" x="672.75" y="-94.74" font-family="Verdana" font-weight="bold" font-size="11.00">ContractID</text>
<polygon fill="#fdbf6f" stroke="none" points="504,-84.19 504,-88.19 743,-88.19 743,-84.19 504,-84.19"/>
<polygon fill="none" stroke="black" points="503,-83.19 503,-269.19 744,-269.19 744,-83.19 503,-83.19"/>
</a>
</g>
</g>
<!-- Node_Ja_125&#45;&gt;Node_Ja_123 -->
<g id="edge7" class="edge">
<title>Node_Ja_125:e&#45;&gt;Node_Ja_123:header</title>
<g id="a_edge7"><a xlink:title="Ja_125 &#45;&#45;&gt; Ja_123">
<path fill="none" stroke="#000000" d="M444,-259.19C465.73,-259.19 473.84,-259.19 491.11,-259.19"/>
<polygon fill="#000000" stroke="#000000" points="490.99,-262.69 500.99,-259.19 490.99,-255.69 490.99,-262.69"/>
</a>
</g>
</g>
<!-- Node_Ja_123&#45;&gt;Node_Ja_125 -->
<g id="edge2" class="edge">
<title>Node_Ja_123:e&#45;&gt;Node_Ja_125:header</title>
<g id="a_edge2"><a xlink:title="Ja_123 &#45;&#45;&gt; Ja_125">
<path fill="none" stroke="#000000" d="M744.5,-133.19C768.5,-133.19 760.63,-96 743.5,-79.19 664.68,-1.82 582.29,-11.53 495,-79.19 426.4,-132.36 525.21,-264.58 455.06,-276.35"/>
<polygon fill="#000000" stroke="#000000" points="455.21,-272.83 445.51,-277.07 455.75,-279.81 455.21,-272.83"/>
</a>
</g>
</g>
<!-- Node_Ja_124 -->
<g id="node4" class="node">
<title>Node_Ja_124</title>
<g id="a_node4"><a xlink:title="proto.ThresholdKey">
<polygon fill="#fffaf0" stroke="none" points="800,-212.19 800,-268.19 920,-268.19 920,-212.19 800,-212.19"/>
<polygon fill="#e31a1c" stroke="none" points="801,-249.19 801,-267.19 919,-267.19 919,-249.19 801,-249.19"/>
<text text-anchor="start" x="833" y="-255.74" font-family="Verdana" font-weight="bold" font-size="11.00">ThresholdKey</text>
<text text-anchor="start" x="806.62" y="-236.74" font-family="Verdana" font-size="11.00">1</text>
<text text-anchor="start" x="816.62" y="-236.74" font-family="Verdana" font-size="11.00">threshold</text>
<polygon fill="#a6cee3" stroke="none" points="870,-231.19 870,-249.19 919,-249.19 919,-231.19 870,-231.19"/>
<text text-anchor="start" x="882.5" y="-237.74" font-family="Verdana" font-style="italic" font-size="11.00">uint32</text>
<text text-anchor="start" x="806.62" y="-218.74" font-family="Verdana" font-size="11.00">2</text>
<text text-anchor="start" x="817" y="-218.74" font-family="Verdana" font-size="11.00">keys</text>
<polygon fill="#fb9a99" stroke="none" points="870,-213.19 870,-231.19 919,-231.19 919,-213.19 870,-213.19"/>
<text text-anchor="start" x="871.62" y="-219.74" font-family="Verdana" font-weight="bold" font-size="11.00">KeyList</text>
<polygon fill="none" stroke="black" points="800,-212.19 800,-268.19 920,-268.19 920,-212.19 800,-212.19"/>
</a>
</g>
</g>
<!-- Node_Ja_123&#45;&gt;Node_Ja_124 -->
<g id="edge8" class="edge">
<title>Node_Ja_123:e&#45;&gt;Node_Ja_124:header</title>
<g id="a_edge8"><a xlink:title="Ja_123 &#45;&#45;&gt; Ja_124">
<path fill="none" stroke="#000000" d="M744.5,-151.19C793.68,-151.19 754.19,-241.35 788.82,-256.15"/>
<polygon fill="#000000" stroke="#000000" points="788.04,-259.56 798.51,-257.92 789.3,-252.68 788.04,-259.56"/>
</a>
</g>
</g>
<!-- Node_Ja_108 -->
<g id="node5" class="node">
<title>Node_Ja_108</title>
<g id="a_node5"><a xlink:title="proto.ContractID">
<polygon fill="#fffaf0" stroke="none" points="796,-56.19 796,-170.19 924,-170.19 924,-56.19 796,-56.19"/>
<polygon fill="#e31a1c" stroke="none" points="797,-151.19 797,-169.19 923,-169.19 923,-151.19 797,-151.19"/>
<text text-anchor="start" x="852.75" y="-157.74" font-family="Verdana" font-weight="bold" font-size="11.00">ContractID</text>
<text text-anchor="start" x="802.62" y="-138.74" font-family="Verdana" font-size="11.00">1</text>
<text text-anchor="start" x="813" y="-138.74" font-family="Verdana" font-size="11.00">shardNum</text>
<polygon fill="#a6cee3" stroke="none" points="889,-133.19 889,-151.19 923,-151.19 923,-133.19 889,-133.19"/>
<text text-anchor="start" x="893.25" y="-139.74" font-family="Verdana" font-style="italic" font-size="11.00">int64</text>
<text text-anchor="start" x="802.62" y="-120.74" font-family="Verdana" font-size="11.00">2</text>
<text text-anchor="start" x="813" y="-120.74" font-family="Verdana" font-size="11.00">realmNum</text>
<polygon fill="#a6cee3" stroke="none" points="889,-115.19 889,-133.19 923,-133.19 923,-115.19 889,-115.19"/>
<text text-anchor="start" x="893.25" y="-121.74" font-family="Verdana" font-style="italic" font-size="11.00">int64</text>
<polygon fill="#fdbf6f" stroke="none" points="797,-97.19 797,-115.19 923,-115.19 923,-97.19 797,-97.19"/>
<text text-anchor="start" x="799" y="-102.74" font-family="Verdana" font-size="11.00">contract</text>
<polygon fill="#fdbf6f" stroke="none" points="797,-79.19 797,-97.19 801,-97.19 801,-79.19 797,-79.19"/>
<text text-anchor="start" x="802.62" y="-84.74" font-family="Verdana" font-size="11.00">3</text>
<text text-anchor="start" x="813" y="-84.74" font-family="Verdana" font-size="11.00">contractNum</text>
<polygon fill="#a6cee3" stroke="none" points="889,-79.19 889,-97.19 923,-97.19 923,-79.19 889,-79.19"/>
<text text-anchor="start" x="893.25" y="-85.74" font-family="Verdana" font-style="italic" font-size="11.00">int64</text>
<polygon fill="#fdbf6f" stroke="none" points="797,-61.19 797,-79.19 801,-79.19 801,-61.19 797,-61.19"/>
<text text-anchor="start" x="802.62" y="-66.74" font-family="Verdana" font-size="11.00">4</text>
<text text-anchor="start" x="812.88" y="-66.74" font-family="Verdana" font-size="11.00">evm_address</text>
<polygon fill="#a6cee3" stroke="none" points="889,-61.19 889,-79.19 923,-79.19 923,-61.19 889,-61.19"/>
<text text-anchor="start" x="890.62" y="-67.74" font-family="Verdana" font-style="italic" font-size="11.00">bytes</text>
<polygon fill="#fdbf6f" stroke="none" points="797,-57.19 797,-61.19 923,-61.19 923,-57.19 797,-57.19"/>
<polygon fill="none" stroke="black" points="796,-56.19 796,-170.19 924,-170.19 924,-56.19 796,-56.19"/>
</a>
</g>
</g>
<!-- Node_Ja_123&#45;&gt;Node_Ja_108 -->
<g id="edge1" class="edge">
<title>Node_Ja_123:e&#45;&gt;Node_Ja_108:header</title>
<g id="a_edge1"><a xlink:title="Ja_123 &#45;&#45;&gt; Ja_108">
<path fill="none" stroke="#000000" d="M744.5,-223.19C776.14,-223.19 764.15,-174.95 784.89,-162.9"/>
<polygon fill="#000000" stroke="#000000" points="785.64,-166.31 794.53,-160.55 783.99,-159.51 785.64,-166.31"/>
</a>
</g>
</g>
<!-- Node_Ja_123&#45;&gt;Node_Ja_108 -->
<g id="edge3" class="edge">
<title>Node_Ja_123:e&#45;&gt;Node_Ja_108:header</title>
<g id="a_edge3"><a xlink:title="Ja_123 &#45;&#45;&gt; Ja_108">
<path fill="none" stroke="#000000" d="M744.5,-97.19C776.14,-97.19 764.15,-145.42 784.89,-157.48"/>
<polygon fill="#000000" stroke="#000000" points="783.99,-160.86 794.53,-159.83 785.64,-154.06 783.99,-160.86"/>
</a>
</g>
</g>
<!-- Node_Ja_124&#45;&gt;Node_Ja_125 -->
<g id="edge4" class="edge">
<title>Node_Ja_124:e&#45;&gt;Node_Ja_125:header</title>
<g id="a_edge4"><a xlink:title="Ja_124 &#45;&#45;&gt; Ja_125">
<path fill="none" stroke="#000000" d="M920,-222.19C926.24,-222.19 923.57,-212.44 919,-208.19 877.69,-169.72 840.48,-179.28 792,-208.19 759.89,-227.33 784.11,-263.04 752,-282.19 653.89,-340.68 609.09,-287.77 495,-282.19 476.52,-281.29 469.44,-278.55 455.21,-277.56"/>
<polygon fill="#000000" stroke="#000000" points="455.62,-274.07 445.51,-277.24 455.39,-281.06 455.62,-274.07"/>
</a>
</g>
</g>
<!-- Node_Ja_149 -->
<g id="node6" class="node">
<title>Node_Ja_149</title>
<g id="a_node6"><a xlink:title="proto.File">
<polygon fill="#fffaf0" stroke="none" points="8,-227.19 8,-373.19 291,-373.19 291,-227.19 8,-227.19"/>
<polygon fill="#e31a1c" stroke="none" points="9,-354.19 9,-372.19 290,-372.19 290,-354.19 9,-354.19"/>
<text text-anchor="start" x="265.5" y="-360.74" font-family="Verdana" font-weight="bold" font-size="11.00">File</text>
<text text-anchor="start" x="14.62" y="-341.74" font-family="Verdana" font-size="11.00">1</text>
<text text-anchor="start" x="25" y="-341.74" font-family="Verdana" font-size="11.00">file_id</text>
<polygon fill="#fb9a99" stroke="none" points="241,-336.19 241,-354.19 290,-354.19 290,-336.19 241,-336.19"/>
<text text-anchor="start" x="250.5" y="-342.74" font-family="Verdana" font-weight="bold" font-size="11.00">FileID</text>
<text text-anchor="start" x="14.62" y="-323.74" font-family="Verdana" font-size="11.00">2</text>
<text text-anchor="start" x="25" y="-323.74" font-family="Verdana" font-size="11.00">expiration_second</text>
<polygon fill="#a6cee3" stroke="none" points="241,-318.19 241,-336.19 290,-336.19 290,-318.19 241,-318.19"/>
<text text-anchor="start" x="260.25" y="-324.74" font-family="Verdana" font-style="italic" font-size="11.00">int64</text>
<text text-anchor="start" x="14.62" y="-305.74" font-family="Verdana" font-size="11.00">3</text>
<text text-anchor="start" x="25" y="-305.74" font-family="Verdana" font-size="11.00">keys</text>
<polygon fill="#fb9a99" stroke="none" points="241,-300.19 241,-318.19 290,-318.19 290,-300.19 241,-300.19"/>
<text text-anchor="start" x="242.62" y="-306.74" font-family="Verdana" font-weight="bold" font-size="11.00">KeyList</text>
<text text-anchor="start" x="14.62" y="-287.74" font-family="Verdana" font-size="11.00">4</text>
<text text-anchor="start" x="25" y="-287.74" font-family="Verdana" font-size="11.00">contents</text>
<polygon fill="#a6cee3" stroke="none" points="241,-282.19 241,-300.19 290,-300.19 290,-282.19 241,-282.19"/>
<text text-anchor="start" x="257.25" y="-288.74" font-family="Verdana" font-style="italic" font-size="11.00">bytes</text>
<text text-anchor="start" x="14.62" y="-269.74" font-family="Verdana" font-size="11.00">5</text>
<text text-anchor="start" x="25" y="-269.74" font-family="Verdana" font-size="11.00">memo</text>
<polygon fill="#a6cee3" stroke="none" points="241,-264.19 241,-282.19 290,-282.19 290,-264.19 241,-264.19"/>
<text text-anchor="start" x="256.5" y="-270.74" font-family="Verdana" font-style="italic" font-size="11.00">string</text>
<text text-anchor="start" x="14.62" y="-251.74" font-family="Verdana" font-size="11.00">6</text>
<text text-anchor="start" x="25" y="-251.74" font-family="Verdana" font-size="11.00">deleted</text>
<polygon fill="#a6cee3" stroke="none" points="241,-246.19 241,-264.19 290,-264.19 290,-246.19 241,-246.19"/>
<text text-anchor="start" x="264.75" y="-252.74" font-family="Verdana" font-style="italic" font-size="11.00">bool</text>
<text text-anchor="start" x="14.62" y="-233.74" font-family="Verdana" font-size="11.00">7</text>
<text text-anchor="start" x="24.75" y="-233.74" font-family="Verdana" font-size="11.00">pre_system_delete_expiration_second</text>
<polygon fill="#a6cee3" stroke="none" points="241,-228.19 241,-246.19 290,-246.19 290,-228.19 241,-228.19"/>
<text text-anchor="start" x="260.25" y="-234.74" font-family="Verdana" font-style="italic" font-size="11.00">int64</text>
<polygon fill="none" stroke="black" points="8,-227.19 8,-373.19 291,-373.19 291,-227.19 8,-227.19"/>
</a>
</g>
</g>
<!-- Node_Ja_149&#45;&gt;Node_Ja_107 -->
<g id="edge5" class="edge">
<title>Node_Ja_149:e&#45;&gt;Node_Ja_107:header</title>
<g id="a_edge5"><a xlink:title="Ja_149 &#45;&#45;&gt; Ja_107">
<path fill="none" stroke="#000000" d="M291.5,-345.19C314.03,-345.19 316.05,-367.55 331.85,-374.89"/>
<polygon fill="#000000" stroke="#000000" points="331.02,-378.29 341.52,-376.88 332.43,-371.43 331.02,-378.29"/>
</a>
</g>
</g>
<!-- Node_Ja_149&#45;&gt;Node_Ja_125 -->
<g id="edge6" class="edge">
<title>Node_Ja_149:e&#45;&gt;Node_Ja_125:header</title>
<g id="a_edge6"><a xlink:title="Ja_149 &#45;&#45;&gt; Ja_125">
<path fill="none" stroke="#000000" d="M291.5,-309.19C316.85,-309.19 319.95,-285.77 338.87,-279"/>
<polygon fill="#000000" stroke="#000000" points="339.2,-282.49 348.51,-277.43 338.07,-275.59 339.2,-282.49"/>
</a>
</g>
</g>
</g>
</svg>
