<?xml version="1.0" encoding="UTF-8" standalone="no"?>
<!DOCTYPE svg PUBLIC "-//W3C//DTD SVG 1.1//EN"
 "http://www.w3.org/Graphics/SVG/1.1/DTD/svg11.dtd">
<!-- Generated by graphviz version 9.0.0 (20230911.1827)
 -->
<!-- Title: NFT Pages: 1 -->
<svg width="609pt" height="355pt"
 viewBox="0.00 0.00 609.00 354.50" xmlns="http://www.w3.org/2000/svg" xmlns:xlink="http://www.w3.org/1999/xlink">
<g id="graph0" class="graph" transform="scale(1 1) rotate(0) translate(4 350.5)">
<title>NFT</title>
<g id="a_graph0"><a xlink:title="proto">
<text text-anchor="middle" x="300.5" y="-7.2" font-family="Times,serif" font-size="14.00">proto</text>
</a>
</g>
<!-- Node_Ja_100 -->
<g id="node1" class="node">
<title>Node_Ja_100</title>
<g id="a_node1"><a xlink:title="proto.Timestamp">
<polygon fill="#fffaf0" stroke="none" points="308,-146.5 308,-202.5 404,-202.5 404,-146.5 308,-146.5"/>
<polygon fill="#e31a1c" stroke="none" points="309,-183.5 309,-201.5 403,-201.5 403,-183.5 309,-183.5"/>
<text text-anchor="start" x="331.25" y="-190.05" font-family="Verdana" font-weight="bold" font-size="11.00">Timestamp</text>
<text text-anchor="start" x="314.62" y="-171.05" font-family="Verdana" font-size="11.00">1</text>
<text text-anchor="start" x="325" y="-171.05" font-family="Verdana" font-size="11.00">seconds</text>
<polygon fill="#a6cee3" stroke="none" points="372,-165.5 372,-183.5 403,-183.5 403,-165.5 372,-165.5"/>
<text text-anchor="start" x="373.62" y="-172.05" font-family="Verdana" font-style="italic" font-size="11.00">int64</text>
<text text-anchor="start" x="314.62" y="-153.05" font-family="Verdana" font-size="11.00">2</text>
<text text-anchor="start" x="325" y="-153.05" font-family="Verdana" font-size="11.00">nanos</text>
<polygon fill="#a6cee3" stroke="none" points="372,-147.5 372,-165.5 403,-165.5 403,-147.5 372,-147.5"/>
<text text-anchor="start" x="373.62" y="-154.05" font-family="Verdana" font-style="italic" font-size="11.00">int32</text>
<polygon fill="none" stroke="black" points="308,-146.5 308,-202.5 404,-202.5 404,-146.5 308,-146.5"/>
</a>
</g>
</g>
<!-- Node_Ja_106 -->
<g id="node2" class="node">
<title>Node_Ja_106</title>
<g id="a_node2"><a xlink:title="proto.NftID">
<polygon fill="#fffaf0" stroke="none" points="279,-64.5 279,-120.5 433,-120.5 433,-64.5 279,-64.5"/>
<polygon fill="#e31a1c" stroke="none" points="280,-101.5 280,-119.5 432,-119.5 432,-101.5 280,-101.5"/>
<text text-anchor="start" x="396.25" y="-108.05" font-family="Verdana" font-weight="bold" font-size="11.00">NftID</text>
<text text-anchor="start" x="285.62" y="-89.05" font-family="Verdana" font-size="11.00">1</text>
<text text-anchor="start" x="296" y="-89.05" font-family="Verdana" font-size="11.00">token_ID</text>
<polygon fill="#fb9a99" stroke="none" points="376,-83.5 376,-101.5 432,-101.5 432,-83.5 376,-83.5"/>
<text text-anchor="start" x="377.75" y="-90.05" font-family="Verdana" font-weight="bold" font-size="11.00">TokenID</text>
<text text-anchor="start" x="285.62" y="-71.05" font-family="Verdana" font-size="11.00">2</text>
<text text-anchor="start" x="295.62" y="-71.05" font-family="Verdana" font-size="11.00">serial_number</text>
<polygon fill="#a6cee3" stroke="none" points="376,-65.5 376,-83.5 432,-83.5 432,-65.5 376,-65.5"/>
<text text-anchor="start" x="402.25" y="-72.05" font-family="Verdana" font-style="italic" font-size="11.00">int64</text>
<polygon fill="none" stroke="black" points="279,-64.5 279,-120.5 433,-120.5 433,-64.5 279,-64.5"/>
</a>
</g>
</g>
<!-- Node_Ja_104 -->
<g id="node4" class="node">
<title>Node_Ja_104</title>
<g id="a_node4"><a xlink:title="proto.TokenID">
<polygon fill="#fffaf0" stroke="none" points="485,-28.5 485,-102.5 593,-102.5 593,-28.5 485,-28.5"/>
<polygon fill="#e31a1c" stroke="none" points="486,-83.5 486,-101.5 592,-101.5 592,-83.5 486,-83.5"/>
<text text-anchor="start" x="537.5" y="-90.05" font-family="Verdana" font-weight="bold" font-size="11.00">TokenID</text>
<text text-anchor="start" x="491.62" y="-71.05" font-family="Verdana" font-size="11.00">1</text>
<text text-anchor="start" x="502" y="-71.05" font-family="Verdana" font-size="11.00">shardNum</text>
<polygon fill="#a6cee3" stroke="none" points="561,-65.5 561,-83.5 592,-83.5 592,-65.5 561,-65.5"/>
<text text-anchor="start" x="562.62" y="-72.05" font-family="Verdana" font-style="italic" font-size="11.00">int64</text>
<text text-anchor="start" x="491.62" y="-53.05" font-family="Verdana" font-size="11.00">2</text>
<text text-anchor="start" x="502" y="-53.05" font-family="Verdana" font-size="11.00">realmNum</text>
<polygon fill="#a6cee3" stroke="none" points="561,-47.5 561,-65.5 592,-65.5 592,-47.5 561,-47.5"/>
<text text-anchor="start" x="562.62" y="-54.05" font-family="Verdana" font-style="italic" font-size="11.00">int64</text>
<text text-anchor="start" x="491.62" y="-35.05" font-family="Verdana" font-size="11.00">3</text>
<text text-anchor="start" x="502" y="-35.05" font-family="Verdana" font-size="11.00">tokenNum</text>
<polygon fill="#a6cee3" stroke="none" points="561,-29.5 561,-47.5 592,-47.5 592,-29.5 561,-29.5"/>
<text text-anchor="start" x="562.62" y="-36.05" font-family="Verdana" font-style="italic" font-size="11.00">int64</text>
<polygon fill="none" stroke="black" points="485,-28.5 485,-102.5 593,-102.5 593,-28.5 485,-28.5"/>
</a>
</g>
</g>
<!-- Node_Ja_106&#45;&gt;Node_Ja_104 -->
<g id="edge2" class="edge">
<title>Node_Ja_106:e&#45;&gt;Node_Ja_104:header</title>
<g id="a_edge2"><a xlink:title="Ja_106 &#45;&#45;&gt; Ja_104">
<path fill="none" stroke="#000000" d="M433,-92.5C451.78,-92.5 459.11,-92.5 473.6,-92.5"/>
<polygon fill="#000000" stroke="#000000" points="473.49,-96 483.49,-92.5 473.49,-89 473.49,-96"/>
</a>
</g>
</g>
<!-- Node_Ja_105 -->
<g id="node3" class="node">
<title>Node_Ja_105</title>
<g id="a_node3"><a xlink:title="proto.AccountID">
<polygon fill="#fffaf0" stroke="none" points="294.5,-228.5 294.5,-342.5 417.5,-342.5 417.5,-228.5 294.5,-228.5"/>
<polygon fill="#e31a1c" stroke="none" points="295.5,-323.5 295.5,-341.5 416.5,-341.5 416.5,-323.5 295.5,-323.5"/>
<text text-anchor="start" x="350" y="-330.05" font-family="Verdana" font-weight="bold" font-size="11.00">AccountID</text>
<text text-anchor="start" x="301.12" y="-311.05" font-family="Verdana" font-size="11.00">1</text>
<text text-anchor="start" x="311.5" y="-311.05" font-family="Verdana" font-size="11.00">shardNum</text>
<polygon fill="#a6cee3" stroke="none" points="382.5,-305.5 382.5,-323.5 416.5,-323.5 416.5,-305.5 382.5,-305.5"/>
<text text-anchor="start" x="386.75" y="-312.05" font-family="Verdana" font-style="italic" font-size="11.00">int64</text>
<text text-anchor="start" x="301.12" y="-293.05" font-family="Verdana" font-size="11.00">2</text>
<text text-anchor="start" x="311.5" y="-293.05" font-family="Verdana" font-size="11.00">realmNum</text>
<polygon fill="#a6cee3" stroke="none" points="382.5,-287.5 382.5,-305.5 416.5,-305.5 416.5,-287.5 382.5,-287.5"/>
<text text-anchor="start" x="386.75" y="-294.05" font-family="Verdana" font-style="italic" font-size="11.00">int64</text>
<polygon fill="#fdbf6f" stroke="none" points="295.5,-269.5 295.5,-287.5 416.5,-287.5 416.5,-269.5 295.5,-269.5"/>
<text text-anchor="start" x="297.5" y="-275.05" font-family="Verdana" font-size="11.00">account</text>
<polygon fill="#fdbf6f" stroke="none" points="295.5,-251.5 295.5,-269.5 299.5,-269.5 299.5,-251.5 295.5,-251.5"/>
<text text-anchor="start" x="301.12" y="-257.05" font-family="Verdana" font-size="11.00">3</text>
<text text-anchor="start" x="311.5" y="-257.05" font-family="Verdana" font-size="11.00">accountNum</text>
<polygon fill="#a6cee3" stroke="none" points="382.5,-251.5 382.5,-269.5 416.5,-269.5 416.5,-251.5 382.5,-251.5"/>
<text text-anchor="start" x="386.75" y="-258.05" font-family="Verdana" font-style="italic" font-size="11.00">int64</text>
<polygon fill="#fdbf6f" stroke="none" points="295.5,-233.5 295.5,-251.5 299.5,-251.5 299.5,-233.5 295.5,-233.5"/>
<text text-anchor="start" x="301.12" y="-239.05" font-family="Verdana" font-size="11.00">4</text>
<text text-anchor="start" x="311.5" y="-239.05" font-family="Verdana" font-size="11.00">alias</text>
<polygon fill="#a6cee3" stroke="none" points="382.5,-233.5 382.5,-251.5 416.5,-251.5 416.5,-233.5 382.5,-233.5"/>
<text text-anchor="start" x="384.12" y="-240.05" font-family="Verdana" font-style="italic" font-size="11.00">bytes</text>
<polygon fill="#fdbf6f" stroke="none" points="295.5,-229.5 295.5,-233.5 416.5,-233.5 416.5,-229.5 295.5,-229.5"/>
<polygon fill="none" stroke="black" points="294.5,-228.5 294.5,-342.5 417.5,-342.5 417.5,-228.5 294.5,-228.5"/>
</a>
</g>
</g>
<!-- Node_Ja_149 -->
<g id="node5" class="node">
<title>Node_Ja_149</title>
<g id="a_node5"><a xlink:title="proto.Nft">
<polygon fill="#fffaf0" stroke="none" points="8,-114.5 8,-260.5 227,-260.5 227,-114.5 8,-114.5"/>
<polygon fill="#e31a1c" stroke="none" points="9,-241.5 9,-259.5 226,-259.5 226,-241.5 9,-241.5"/>
<text text-anchor="start" x="205.25" y="-248.05" font-family="Verdana" font-weight="bold" font-size="11.00">Nft</text>
<text text-anchor="start" x="14.62" y="-229.05" font-family="Verdana" font-size="11.00">1</text>
<text text-anchor="start" x="25" y="-229.05" font-family="Verdana" font-size="11.00">nft_id</text>
<polygon fill="#fb9a99" stroke="none" points="153,-223.5 153,-241.5 226,-241.5 226,-223.5 153,-223.5"/>
<text text-anchor="start" x="190.25" y="-230.05" font-family="Verdana" font-weight="bold" font-size="11.00">NftID</text>
<text text-anchor="start" x="14.62" y="-211.05" font-family="Verdana" font-size="11.00">2</text>
<text text-anchor="start" x="25" y="-211.05" font-family="Verdana" font-size="11.00">owner_id</text>
<polygon fill="#fb9a99" stroke="none" points="153,-205.5 153,-223.5 226,-223.5 226,-205.5 153,-205.5"/>
<text text-anchor="start" x="159.5" y="-212.05" font-family="Verdana" font-weight="bold" font-size="11.00">AccountID</text>
<text text-anchor="start" x="14.62" y="-193.05" font-family="Verdana" font-size="11.00">3</text>
<text text-anchor="start" x="25" y="-193.05" font-family="Verdana" font-size="11.00">spender_id</text>
<polygon fill="#fb9a99" stroke="none" points="153,-187.5 153,-205.5 226,-205.5 226,-187.5 153,-187.5"/>
<text text-anchor="start" x="159.5" y="-194.05" font-family="Verdana" font-weight="bold" font-size="11.00">AccountID</text>
<text text-anchor="start" x="14.62" y="-175.05" font-family="Verdana" font-size="11.00">4</text>
<text text-anchor="start" x="25" y="-175.05" font-family="Verdana" font-size="11.00">mint_time</text>
<polygon fill="#fb9a99" stroke="none" points="153,-169.5 153,-187.5 226,-187.5 226,-169.5 153,-169.5"/>
<text text-anchor="start" x="154.62" y="-176.05" font-family="Verdana" font-weight="bold" font-size="11.00">Timestamp</text>
<text text-anchor="start" x="14.62" y="-157.05" font-family="Verdana" font-size="11.00">5</text>
<text text-anchor="start" x="25" y="-157.05" font-family="Verdana" font-size="11.00">metadata</text>
<polygon fill="#a6cee3" stroke="none" points="153,-151.5 153,-169.5 226,-169.5 226,-151.5 153,-151.5"/>
<text text-anchor="start" x="193.25" y="-158.05" font-family="Verdana" font-style="italic" font-size="11.00">bytes</text>
<text text-anchor="start" x="14.62" y="-139.05" font-family="Verdana" font-size="11.00">6</text>
<text text-anchor="start" x="25" y="-139.05" font-family="Verdana" font-size="11.00">owner_previous_nft_id</text>
<polygon fill="#fb9a99" stroke="none" points="153,-133.5 153,-151.5 226,-151.5 226,-133.5 153,-133.5"/>
<text text-anchor="start" x="190.25" y="-140.05" font-family="Verdana" font-weight="bold" font-size="11.00">NftID</text>
<text text-anchor="start" x="14.62" y="-121.05" font-family="Verdana" font-size="11.00">7</text>
<text text-anchor="start" x="25" y="-121.05" font-family="Verdana" font-size="11.00">owner_next_nft_id</text>
<polygon fill="#fb9a99" stroke="none" points="153,-115.5 153,-133.5 226,-133.5 226,-115.5 153,-115.5"/>
<text text-anchor="start" x="190.25" y="-122.05" font-family="Verdana" font-weight="bold" font-size="11.00">NftID</text>
<polygon fill="none" stroke="black" points="8,-114.5 8,-260.5 227,-260.5 227,-114.5 8,-114.5"/>
</a>
</g>
</g>
<!-- Node_Ja_149&#45;&gt;Node_Ja_100 -->
<g id="edge3" class="edge">
<title>Node_Ja_149:e&#45;&gt;Node_Ja_100:header</title>
<g id="a_edge3"><a xlink:title="Ja_149 &#45;&#45;&gt; Ja_100">
<path fill="none" stroke="#000000" d="M227.5,-178.5C259.7,-178.5 269.54,-189.51 296.67,-192"/>
<polygon fill="#000000" stroke="#000000" points="296.34,-195.49 306.49,-192.43 296.65,-188.5 296.34,-195.49"/>
</a>
</g>
</g>
<!-- Node_Ja_149&#45;&gt;Node_Ja_106 -->
<g id="edge1" class="edge">
<title>Node_Ja_149:e&#45;&gt;Node_Ja_106:header</title>
<g id="a_edge1"><a xlink:title="Ja_149 &#45;&#45;&gt; Ja_106">
<path fill="none" stroke="#000000" d="M227.5,-142.5C250.03,-142.5 252.05,-120.14 267.85,-112.8"/>
<polygon fill="#000000" stroke="#000000" points="268.43,-116.25 277.52,-110.81 267.02,-109.4 268.43,-116.25"/>
</a>
</g>
</g>
<!-- Node_Ja_149&#45;&gt;Node_Ja_106 -->
<g id="edge4" class="edge">
<title>Node_Ja_149:e&#45;&gt;Node_Ja_106:header</title>
<g id="a_edge4"><a xlink:title="Ja_149 &#45;&#45;&gt; Ja_106">
<path fill="none" stroke="#000000" d="M227.5,-124.5C246.96,-124.5 253.19,-115.08 267.89,-111.69"/>
<polygon fill="#000000" stroke="#000000" points="267.93,-115.21 277.5,-110.66 267.18,-108.25 267.93,-115.21"/>
</a>
</g>
</g>
<!-- Node_Ja_149&#45;&gt;Node_Ja_106 -->
<g id="edge5" class="edge">
<title>Node_Ja_149:e&#45;&gt;Node_Ja_106:header</title>
<g id="a_edge5"><a xlink:title="Ja_149 &#45;&#45;&gt; Ja_106">
<path fill="none" stroke="#000000" d="M227.5,-232.5C281.99,-232.5 229.28,-127.94 267.86,-112.42"/>
<polygon fill="#000000" stroke="#000000" points="268.25,-115.9 277.51,-110.76 267.06,-109 268.25,-115.9"/>
</a>
</g>
</g>
<!-- Node_Ja_149&#45;&gt;Node_Ja_105 -->
<g id="edge6" class="edge">
<title>Node_Ja_149:e&#45;&gt;Node_Ja_105:header</title>
<g id="a_edge6"><a xlink:title="Ja_149 &#45;&#45;&gt; Ja_105">
<path fill="none" stroke="#000000" d="M227.5,-196.5C290.45,-196.5 234.93,-315.53 282.6,-330.88"/>
<polygon fill="#000000" stroke="#000000" points="282.11,-334.34 292.5,-332.29 283.09,-327.41 282.11,-334.34"/>
</a>
</g>
</g>
<!-- Node_Ja_149&#45;&gt;Node_Ja_105 -->
<g id="edge7" class="edge">
<title>Node_Ja_149:e&#45;&gt;Node_Ja_105:header</title>
<g id="a_edge7"><a xlink:title="Ja_149 &#45;&#45;&gt; Ja_105">
<path fill="none" stroke="#000000" d="M227.5,-214.5C283.35,-214.5 240.99,-316.06 282.65,-330.74"/>
<polygon fill="#000000" stroke="#000000" points="282.09,-334.19 292.5,-332.27 283.16,-327.28 282.09,-334.19"/>
</a>
</g>
</g>
</g>
</svg>
