<?xml version="1.0" encoding="UTF-8" standalone="no"?>
<!DOCTYPE svg PUBLIC "-//W3C//DTD SVG 1.1//EN"
 "http://www.w3.org/Graphics/SVG/1.1/DTD/svg11.dtd">
<!-- Generated by graphviz version 9.0.0 (20230911.1827)
 -->
<!-- Title: Running Hashes Pages: 1 -->
<svg width="219pt" height="133pt"
 viewBox="0.00 0.00 219.00 132.50" xmlns="http://www.w3.org/2000/svg" xmlns:xlink="http://www.w3.org/1999/xlink">
<g id="graph0" class="graph" transform="scale(1 1) rotate(0) translate(4 128.5)">
<title>Running Hashes</title>
<g id="a_graph0"><a xlink:title="proto">
<text text-anchor="middle" x="105.5" y="-7.2" font-family="Times,serif" font-size="14.00">proto</text>
</a>
</g>
<!-- Node_Ja_100 -->
<g id="node1" class="node">
<title>Node_Ja_100</title>
<g id="a_node1"><a xlink:title="proto.RunningHashes">
<polygon fill="#fffaf0" stroke="none" points="8,-28.5 8,-120.5 203,-120.5 203,-28.5 8,-28.5"/>
<polygon fill="#e31a1c" stroke="none" points="9,-101.5 9,-119.5 202,-119.5 202,-101.5 9,-101.5"/>
<text text-anchor="start" x="105.5" y="-108.05" font-family="Verdana" font-weight="bold" font-size="11.00">RunningHashes</text>
<text text-anchor="start" x="14.62" y="-89.05" font-family="Verdana" font-size="11.00">1</text>
<text text-anchor="start" x="25" y="-89.05" font-family="Verdana" font-size="11.00">running_hash</text>
<polygon fill="#a6cee3" stroke="none" points="168,-83.5 168,-101.5 202,-101.5 202,-83.5 168,-83.5"/>
<text text-anchor="start" x="169.62" y="-90.05" font-family="Verdana" font-style="italic" font-size="11.00">bytes</text>
<text text-anchor="start" x="14.62" y="-71.05" font-family="Verdana" font-size="11.00">2</text>
<text text-anchor="start" x="25" y="-71.05" font-family="Verdana" font-size="11.00">n_minus_1_running_hash</text>
<polygon fill="#a6cee3" stroke="none" points="168,-65.5 168,-83.5 202,-83.5 202,-65.5 168,-65.5"/>
<text text-anchor="start" x="169.62" y="-72.05" font-family="Verdana" font-style="italic" font-size="11.00">bytes</text>
<text text-anchor="start" x="14.62" y="-53.05" font-family="Verdana" font-size="11.00">3</text>
<text text-anchor="start" x="25" y="-53.05" font-family="Verdana" font-size="11.00">n_minus_2_running_hash</text>
<polygon fill="#a6cee3" stroke="none" points="168,-47.5 168,-65.5 202,-65.5 202,-47.5 168,-47.5"/>
<text text-anchor="start" x="169.62" y="-54.05" font-family="Verdana" font-style="italic" font-size="11.00">bytes</text>
<text text-anchor="start" x="14.62" y="-35.05" font-family="Verdana" font-size="11.00">4</text>
<text text-anchor="start" x="25" y="-35.05" font-family="Verdana" font-size="11.00">n_minus_3_running_hash</text>
<polygon fill="#a6cee3" stroke="none" points="168,-29.5 168,-47.5 202,-47.5 202,-29.5 168,-29.5"/>
<text text-anchor="start" x="169.62" y="-36.05" font-family="Verdana" font-style="italic" font-size="11.00">bytes</text>
<polygon fill="none" stroke="black" points="8,-28.5 8,-120.5 203,-120.5 203,-28.5 8,-28.5"/>
</a>
</g>
</g>
</g>
</svg>
