<?xml version="1.0" encoding="UTF-8" standalone="no"?>
<!DOCTYPE svg PUBLIC "-//W3C//DTD SVG 1.1//EN"
 "http://www.w3.org/Graphics/SVG/1.1/DTD/svg11.dtd">
<!-- Generated by graphviz version 9.0.0 (20230911.1827)
 -->
<!-- Title: Staking Node Info Pages: 1 -->
<svg width="274pt" height="277pt"
 viewBox="0.00 0.00 274.00 276.50" xmlns="http://www.w3.org/2000/svg" xmlns:xlink="http://www.w3.org/1999/xlink">
<g id="graph0" class="graph" transform="scale(1 1) rotate(0) translate(4 272.5)">
<title>Staking Node Info</title>
<g id="a_graph0"><a xlink:title="proto">
<text text-anchor="middle" x="133" y="-7.2" font-family="Times,serif" font-size="14.00">proto</text>
</a>
</g>
<!-- Node_Ja_100 -->
<g id="node1" class="node">
<title>Node_Ja_100</title>
<g id="a_node1"><a xlink:title="proto.StakingNodeInfo">
<polygon fill="#fffaf0" stroke="none" points="8,-28.5 8,-264.5 258,-264.5 258,-28.5 8,-28.5"/>
<polygon fill="#e31a1c" stroke="none" points="9,-245.5 9,-263.5 257,-263.5 257,-245.5 9,-245.5"/>
<text text-anchor="start" x="151.5" y="-252.05" font-family="Verdana" font-weight="bold" font-size="11.00">StakingNodeInfo</text>
<text text-anchor="start" x="42.25" y="-233.05" font-family="Verdana" font-size="11.00">1</text>
<text text-anchor="start" x="53" y="-233.05" font-family="Verdana" font-size="11.00">node_number</text>
<polygon fill="#a6cee3" stroke="none" points="226,-227.5 226,-245.5 257,-245.5 257,-227.5 226,-227.5"/>
<text text-anchor="start" x="227.62" y="-234.05" font-family="Verdana" font-style="italic" font-size="11.00">int64</text>
<text text-anchor="start" x="42.25" y="-215.05" font-family="Verdana" font-size="11.00">2</text>
<text text-anchor="start" x="53" y="-215.05" font-family="Verdana" font-size="11.00">min_stake</text>
<polygon fill="#a6cee3" stroke="none" points="226,-209.5 226,-227.5 257,-227.5 257,-209.5 226,-209.5"/>
<text text-anchor="start" x="227.62" y="-216.05" font-family="Verdana" font-style="italic" font-size="11.00">int64</text>
<text text-anchor="start" x="42.25" y="-197.05" font-family="Verdana" font-size="11.00">3</text>
<text text-anchor="start" x="53" y="-197.05" font-family="Verdana" font-size="11.00">max_stake</text>
<polygon fill="#a6cee3" stroke="none" points="226,-191.5 226,-209.5 257,-209.5 257,-191.5 226,-191.5"/>
<text text-anchor="start" x="227.62" y="-198.05" font-family="Verdana" font-style="italic" font-size="11.00">int64</text>
<text text-anchor="start" x="42.25" y="-179.05" font-family="Verdana" font-size="11.00">4</text>
<text text-anchor="start" x="53" y="-179.05" font-family="Verdana" font-size="11.00">stake_to_reward</text>
<polygon fill="#a6cee3" stroke="none" points="226,-173.5 226,-191.5 257,-191.5 257,-173.5 226,-173.5"/>
<text text-anchor="start" x="227.62" y="-180.05" font-family="Verdana" font-style="italic" font-size="11.00">int64</text>
<text text-anchor="start" x="42.25" y="-161.05" font-family="Verdana" font-size="11.00">5</text>
<text text-anchor="start" x="53" y="-161.05" font-family="Verdana" font-size="11.00">stake_to_not_reward</text>
<polygon fill="#a6cee3" stroke="none" points="226,-155.5 226,-173.5 257,-173.5 257,-155.5 226,-155.5"/>
<text text-anchor="start" x="227.62" y="-162.05" font-family="Verdana" font-style="italic" font-size="11.00">int64</text>
<text text-anchor="start" x="42.25" y="-143.05" font-family="Verdana" font-size="11.00">6</text>
<text text-anchor="start" x="53" y="-143.05" font-family="Verdana" font-size="11.00">stake_reward_start</text>
<polygon fill="#a6cee3" stroke="none" points="226,-137.5 226,-155.5 257,-155.5 257,-137.5 226,-137.5"/>
<text text-anchor="start" x="227.62" y="-144.05" font-family="Verdana" font-style="italic" font-size="11.00">int64</text>
<text text-anchor="start" x="42.25" y="-125.05" font-family="Verdana" font-size="11.00">7</text>
<text text-anchor="start" x="52.62" y="-125.05" font-family="Verdana" font-size="11.00">unclaimed_stake_reward_start</text>
<polygon fill="#a6cee3" stroke="none" points="226,-119.5 226,-137.5 257,-137.5 257,-119.5 226,-119.5"/>
<text text-anchor="start" x="227.62" y="-126.05" font-family="Verdana" font-style="italic" font-size="11.00">int64</text>
<text text-anchor="start" x="42.25" y="-107.05" font-family="Verdana" font-size="11.00">8</text>
<text text-anchor="start" x="53" y="-107.05" font-family="Verdana" font-size="11.00">stake</text>
<polygon fill="#a6cee3" stroke="none" points="226,-101.5 226,-119.5 257,-119.5 257,-101.5 226,-101.5"/>
<text text-anchor="start" x="227.62" y="-108.05" font-family="Verdana" font-style="italic" font-size="11.00">int64</text>
<text text-anchor="start" x="10.62" y="-89.05" font-family="Verdana" font-size="11.00">[...]</text>
<text text-anchor="start" x="42.25" y="-89.05" font-family="Verdana" font-size="11.00">9</text>
<text text-anchor="start" x="53" y="-89.05" font-family="Verdana" font-size="11.00">reward_sum_history</text>
<polygon fill="#a6cee3" stroke="none" points="226,-83.5 226,-101.5 257,-101.5 257,-83.5 226,-83.5"/>
<text text-anchor="start" x="227.62" y="-90.05" font-family="Verdana" font-style="italic" font-size="11.00">int64</text>
<text text-anchor="start" x="35.75" y="-71.05" font-family="Verdana" font-size="11.00">10</text>
<text text-anchor="start" x="53" y="-71.05" font-family="Verdana" font-size="11.00">weight</text>
<polygon fill="#a6cee3" stroke="none" points="226,-65.5 226,-83.5 257,-83.5 257,-65.5 226,-65.5"/>
<text text-anchor="start" x="227.62" y="-72.05" font-family="Verdana" font-style="italic" font-size="11.00">int32</text>
<text text-anchor="start" x="35.75" y="-53.05" font-family="Verdana" font-size="11.00">11</text>
<text text-anchor="start" x="53" y="-53.05" font-family="Verdana" font-size="11.00">pending_rewards</text>
<polygon fill="#a6cee3" stroke="none" points="226,-47.5 226,-65.5 257,-65.5 257,-47.5 226,-47.5"/>
<text text-anchor="start" x="227.62" y="-54.05" font-family="Verdana" font-style="italic" font-size="11.00">int64</text>
<text text-anchor="start" x="35.75" y="-35.05" font-family="Verdana" font-size="11.00">12</text>
<text text-anchor="start" x="53" y="-35.05" font-family="Verdana" font-size="11.00">deleted</text>
<polygon fill="#a6cee3" stroke="none" points="226,-29.5 226,-47.5 257,-47.5 257,-29.5 226,-29.5"/>
<text text-anchor="start" x="231.75" y="-36.05" font-family="Verdana" font-style="italic" font-size="11.00">bool</text>
<polygon fill="none" stroke="black" points="8,-28.5 8,-264.5 258,-264.5 258,-28.5 8,-28.5"/>
</a>
</g>
</g>
</g>
</svg>
