<?xml version="1.0" encoding="UTF-8" standalone="no"?>
<!DOCTYPE svg PUBLIC "-//W3C//DTD SVG 1.1//EN"
 "http://www.w3.org/Graphics/SVG/1.1/DTD/svg11.dtd">
<!-- Generated by graphviz version 9.0.0 (20230911.1827)
 -->
<!-- Title: protodot Pages: 1 -->
<svg width="354pt" height="273pt"
 viewBox="0.00 0.00 354.00 272.50" xmlns="http://www.w3.org/2000/svg" xmlns:xlink="http://www.w3.org/1999/xlink">
<g id="graph0" class="graph" transform="scale(1 1) rotate(0) translate(4 268.5)">
<title>Contract Storage Slot</title>
<g id="a_graph0"><a xlink:title="proto">
<text text-anchor="middle" x="173" y="-7.2" font-family="Times,serif" font-size="14.00">proto</text>
</a>
</g>
<!-- Node_Ja_108 -->
<g id="node1" class="node">
<title>Node_Ja_108</title>
<g id="a_node1"><a xlink:title="proto.ContractID">
<polygon fill="#fffaf0" stroke="none" points="210,-28.5 210,-142.5 338,-142.5 338,-28.5 210,-28.5"/>
<polygon fill="#e31a1c" stroke="none" points="211,-123.5 211,-141.5 337,-141.5 337,-123.5 211,-123.5"/>
<text text-anchor="start" x="266.75" y="-130.05" font-family="Verdana" font-weight="bold" font-size="11.00">ContractID</text>
<text text-anchor="start" x="216.62" y="-111.05" font-family="Verdana" font-size="11.00">1</text>
<text text-anchor="start" x="227" y="-111.05" font-family="Verdana" font-size="11.00">shardNum</text>
<polygon fill="#a6cee3" stroke="none" points="303,-105.5 303,-123.5 337,-123.5 337,-105.5 303,-105.5"/>
<text text-anchor="start" x="307.25" y="-112.05" font-family="Verdana" font-style="italic" font-size="11.00">int64</text>
<text text-anchor="start" x="216.62" y="-93.05" font-family="Verdana" font-size="11.00">2</text>
<text text-anchor="start" x="227" y="-93.05" font-family="Verdana" font-size="11.00">realmNum</text>
<polygon fill="#a6cee3" stroke="none" points="303,-87.5 303,-105.5 337,-105.5 337,-87.5 303,-87.5"/>
<text text-anchor="start" x="307.25" y="-94.05" font-family="Verdana" font-style="italic" font-size="11.00">int64</text>
<polygon fill="#fdbf6f" stroke="none" points="211,-69.5 211,-87.5 337,-87.5 337,-69.5 211,-69.5"/>
<text text-anchor="start" x="213" y="-75.05" font-family="Verdana" font-size="11.00">contract</text>
<polygon fill="#fdbf6f" stroke="none" points="211,-51.5 211,-69.5 215,-69.5 215,-51.5 211,-51.5"/>
<text text-anchor="start" x="216.62" y="-57.05" font-family="Verdana" font-size="11.00">3</text>
<text text-anchor="start" x="227" y="-57.05" font-family="Verdana" font-size="11.00">contractNum</text>
<polygon fill="#a6cee3" stroke="none" points="303,-51.5 303,-69.5 337,-69.5 337,-51.5 303,-51.5"/>
<text text-anchor="start" x="307.25" y="-58.05" font-family="Verdana" font-style="italic" font-size="11.00">int64</text>
<polygon fill="#fdbf6f" stroke="none" points="211,-33.5 211,-51.5 215,-51.5 215,-33.5 211,-33.5"/>
<text text-anchor="start" x="216.62" y="-39.05" font-family="Verdana" font-size="11.00">4</text>
<text text-anchor="start" x="226.88" y="-39.05" font-family="Verdana" font-size="11.00">evm_address</text>
<polygon fill="#a6cee3" stroke="none" points="303,-33.5 303,-51.5 337,-51.5 337,-33.5 303,-33.5"/>
<text text-anchor="start" x="304.62" y="-40.05" font-family="Verdana" font-style="italic" font-size="11.00">bytes</text>
<polygon fill="#fdbf6f" stroke="none" points="211,-29.5 211,-33.5 337,-33.5 337,-29.5 211,-29.5"/>
<polygon fill="none" stroke="black" points="210,-28.5 210,-142.5 338,-142.5 338,-28.5 210,-28.5"/>
</a>
</g>
</g>
<!-- Node_Ja_149 -->
<g id="node2" class="node">
<title>Node_Ja_149</title>
<g id="a_node2"><a xlink:title="proto.SlotKey">
<polygon fill="#fffaf0" stroke="none" points="8,-104.5 8,-160.5 158,-160.5 158,-104.5 8,-104.5"/>
<polygon fill="#e31a1c" stroke="none" points="9,-141.5 9,-159.5 157,-159.5 157,-141.5 9,-141.5"/>
<text text-anchor="start" x="107.75" y="-148.05" font-family="Verdana" font-weight="bold" font-size="11.00">SlotKey</text>
<text text-anchor="start" x="14.62" y="-129.05" font-family="Verdana" font-size="11.00">1</text>
<text text-anchor="start" x="24.75" y="-129.05" font-family="Verdana" font-size="11.00">contractID</text>
<polygon fill="#fb9a99" stroke="none" points="85,-123.5 85,-141.5 157,-141.5 157,-123.5 85,-123.5"/>
<text text-anchor="start" x="86.88" y="-130.05" font-family="Verdana" font-weight="bold" font-size="11.00">ContractID</text>
<text text-anchor="start" x="14.62" y="-111.05" font-family="Verdana" font-size="11.00">2</text>
<text text-anchor="start" x="25" y="-111.05" font-family="Verdana" font-size="11.00">key</text>
<polygon fill="#a6cee3" stroke="none" points="85,-105.5 85,-123.5 157,-123.5 157,-105.5 85,-105.5"/>
<text text-anchor="start" x="124.25" y="-112.05" font-family="Verdana" font-style="italic" font-size="11.00">bytes</text>
<polygon fill="none" stroke="black" points="8,-104.5 8,-160.5 158,-160.5 158,-104.5 8,-104.5"/>
</a>
</g>
</g>
<!-- Node_Ja_149&#45;&gt;Node_Ja_108 -->
<g id="edge1" class="edge">
<title>Node_Ja_149:e&#45;&gt;Node_Ja_108:header</title>
<g id="a_edge1"><a xlink:title="Ja_149 &#45;&#45;&gt; Ja_108">
<path fill="none" stroke="#000000" d="M158,-132.5C176.78,-132.5 184.11,-132.5 198.6,-132.5"/>
<polygon fill="#000000" stroke="#000000" points="198.49,-136 208.49,-132.5 198.49,-129 198.49,-136"/>
</a>
</g>
</g>
<!-- Node_Ja_150 -->
<g id="node3" class="node">
<title>Node_Ja_150</title>
<g id="a_node3"><a xlink:title="proto.SlotValue">
<polygon fill="#fffaf0" stroke="none" points="19,-186.5 19,-260.5 147,-260.5 147,-186.5 19,-186.5"/>
<polygon fill="#e31a1c" stroke="none" points="20,-241.5 20,-259.5 146,-259.5 146,-241.5 20,-241.5"/>
<text text-anchor="start" x="85.5" y="-248.05" font-family="Verdana" font-weight="bold" font-size="11.00">SlotValue</text>
<text text-anchor="start" x="25.62" y="-229.05" font-family="Verdana" font-size="11.00">1</text>
<text text-anchor="start" x="36" y="-229.05" font-family="Verdana" font-size="11.00">value</text>
<polygon fill="#a6cee3" stroke="none" points="112,-223.5 112,-241.5 146,-241.5 146,-223.5 112,-223.5"/>
<text text-anchor="start" x="113.62" y="-230.05" font-family="Verdana" font-style="italic" font-size="11.00">bytes</text>
<text text-anchor="start" x="25.62" y="-211.05" font-family="Verdana" font-size="11.00">2</text>
<text text-anchor="start" x="35.88" y="-211.05" font-family="Verdana" font-size="11.00">previous_key</text>
<polygon fill="#a6cee3" stroke="none" points="112,-205.5 112,-223.5 146,-223.5 146,-205.5 112,-205.5"/>
<text text-anchor="start" x="113.62" y="-212.05" font-family="Verdana" font-style="italic" font-size="11.00">bytes</text>
<text text-anchor="start" x="25.62" y="-193.05" font-family="Verdana" font-size="11.00">3</text>
<text text-anchor="start" x="36" y="-193.05" font-family="Verdana" font-size="11.00">next_key</text>
<polygon fill="#a6cee3" stroke="none" points="112,-187.5 112,-205.5 146,-205.5 146,-187.5 112,-187.5"/>
<text text-anchor="start" x="113.62" y="-194.05" font-family="Verdana" font-style="italic" font-size="11.00">bytes</text>
<polygon fill="none" stroke="black" points="19,-186.5 19,-260.5 147,-260.5 147,-186.5 19,-186.5"/>
</a>
</g>
</g>
</g>
</svg>
