<?xml version="1.0" encoding="UTF-8" standalone="no"?>
<!DOCTYPE svg PUBLIC "-//W3C//DTD SVG 1.1//EN"
 "http://www.w3.org/Graphics/SVG/1.1/DTD/svg11.dtd">
<!-- Generated by graphviz version 9.0.0 (20230911.1827)
 -->
<!-- Title: Throttle Usage Snapshots Pages: 1 -->
<svg width="680pt" height="160pt"
 viewBox="0.00 0.00 680.00 159.50" xmlns="http://www.w3.org/2000/svg" xmlns:xlink="http://www.w3.org/1999/xlink">
<g id="graph0" class="graph" transform="scale(1 1) rotate(0) translate(4 155.5)">
<title>Throttle Usage Snapshots</title>
<g id="a_graph0"><a xlink:title="proto">
<text text-anchor="middle" x="336" y="-7.2" font-family="Times,serif" font-size="14.00">proto</text>
</a>
</g>
<!-- Node_Ja_102 -->
<g id="node1" class="node">
<title>Node_Ja_102</title>
<g id="a_node1"><a xlink:title="proto.ThrottleUsageSnapshots">
<polygon fill="#fffaf0" stroke="none" points="8,-91.5 8,-147.5 268,-147.5 268,-91.5 8,-91.5"/>
<polygon fill="#e31a1c" stroke="none" points="9,-128.5 9,-146.5 267,-146.5 267,-128.5 9,-128.5"/>
<text text-anchor="start" x="113.5" y="-135.05" font-family="Verdana" font-weight="bold" font-size="11.00">ThrottleUsageSnapshots</text>
<text text-anchor="start" x="10.62" y="-116.05" font-family="Verdana" font-size="11.00">[...]</text>
<text text-anchor="start" x="35.62" y="-116.05" font-family="Verdana" font-size="11.00">1</text>
<text text-anchor="start" x="45.88" y="-116.05" font-family="Verdana" font-size="11.00">tps_throttles</text>
<polygon fill="#fb9a99" stroke="none" points="119,-110.5 119,-128.5 267,-128.5 267,-110.5 119,-110.5"/>
<text text-anchor="start" x="120.62" y="-117.05" font-family="Verdana" font-weight="bold" font-size="11.00">ThrottleUsageSnapshot</text>
<text text-anchor="start" x="35.62" y="-98.05" font-family="Verdana" font-size="11.00">2</text>
<text text-anchor="start" x="46" y="-98.05" font-family="Verdana" font-size="11.00">gas_throttle</text>
<polygon fill="#fb9a99" stroke="none" points="119,-92.5 119,-110.5 267,-110.5 267,-92.5 119,-92.5"/>
<text text-anchor="start" x="120.62" y="-99.05" font-family="Verdana" font-weight="bold" font-size="11.00">ThrottleUsageSnapshot</text>
<polygon fill="none" stroke="black" points="8,-91.5 8,-147.5 268,-147.5 268,-91.5 8,-91.5"/>
</a>
</g>
</g>
<!-- Node_Ja_103 -->
<g id="node2" class="node">
<title>Node_Ja_103</title>
<g id="a_node2"><a xlink:title="proto.ThrottleUsageSnapshot">
<polygon fill="#fffaf0" stroke="none" points="320,-64.5 320,-120.5 516,-120.5 516,-64.5 320,-64.5"/>
<polygon fill="#e31a1c" stroke="none" points="321,-101.5 321,-119.5 515,-119.5 515,-101.5 321,-101.5"/>
<text text-anchor="start" x="368.25" y="-108.05" font-family="Verdana" font-weight="bold" font-size="11.00">ThrottleUsageSnapshot</text>
<text text-anchor="start" x="326.62" y="-89.05" font-family="Verdana" font-size="11.00">1</text>
<text text-anchor="start" x="337" y="-89.05" font-family="Verdana" font-size="11.00">used</text>
<polygon fill="#a6cee3" stroke="none" points="442,-83.5 442,-101.5 515,-101.5 515,-83.5 442,-83.5"/>
<text text-anchor="start" x="485.25" y="-90.05" font-family="Verdana" font-style="italic" font-size="11.00">int64</text>
<text text-anchor="start" x="326.62" y="-71.05" font-family="Verdana" font-size="11.00">2</text>
<text text-anchor="start" x="336.75" y="-71.05" font-family="Verdana" font-size="11.00">last_decision_time</text>
<polygon fill="#fb9a99" stroke="none" points="442,-65.5 442,-83.5 515,-83.5 515,-65.5 442,-65.5"/>
<text text-anchor="start" x="443.62" y="-72.05" font-family="Verdana" font-weight="bold" font-size="11.00">Timestamp</text>
<polygon fill="none" stroke="black" points="320,-64.5 320,-120.5 516,-120.5 516,-64.5 320,-64.5"/>
</a>
</g>
</g>
<!-- Node_Ja_102&#45;&gt;Node_Ja_103 -->
<g id="edge1" class="edge">
<title>Node_Ja_102:e&#45;&gt;Node_Ja_103:header</title>
<g id="a_edge1"><a xlink:title="Ja_102 &#45;&#45;&gt; Ja_103">
<path fill="none" stroke="#000000" d="M268,-119.5C287.24,-119.5 294.12,-113.44 308.92,-111.27"/>
<polygon fill="#000000" stroke="#000000" points="308.76,-114.79 318.49,-110.6 308.27,-107.8 308.76,-114.79"/>
</a>
</g>
</g>
<!-- Node_Ja_102&#45;&gt;Node_Ja_103 -->
<g id="edge2" class="edge">
<title>Node_Ja_102:e&#45;&gt;Node_Ja_103:header</title>
<g id="a_edge2"><a xlink:title="Ja_102 &#45;&#45;&gt; Ja_103">
<path fill="none" stroke="#000000" d="M268,-101.5C287.24,-101.5 294.12,-107.56 308.92,-109.73"/>
<polygon fill="#000000" stroke="#000000" points="308.27,-113.2 318.49,-110.4 308.76,-106.21 308.27,-113.2"/>
</a>
</g>
</g>
<!-- Node_Ja_100 -->
<g id="node3" class="node">
<title>Node_Ja_100</title>
<g id="a_node3"><a xlink:title="proto.Timestamp">
<polygon fill="#fffaf0" stroke="none" points="568,-28.5 568,-84.5 664,-84.5 664,-28.5 568,-28.5"/>
<polygon fill="#e31a1c" stroke="none" points="569,-65.5 569,-83.5 663,-83.5 663,-65.5 569,-65.5"/>
<text text-anchor="start" x="591.25" y="-72.05" font-family="Verdana" font-weight="bold" font-size="11.00">Timestamp</text>
<text text-anchor="start" x="574.62" y="-53.05" font-family="Verdana" font-size="11.00">1</text>
<text text-anchor="start" x="585" y="-53.05" font-family="Verdana" font-size="11.00">seconds</text>
<polygon fill="#a6cee3" stroke="none" points="632,-47.5 632,-65.5 663,-65.5 663,-47.5 632,-47.5"/>
<text text-anchor="start" x="633.62" y="-54.05" font-family="Verdana" font-style="italic" font-size="11.00">int64</text>
<text text-anchor="start" x="574.62" y="-35.05" font-family="Verdana" font-size="11.00">2</text>
<text text-anchor="start" x="585" y="-35.05" font-family="Verdana" font-size="11.00">nanos</text>
<polygon fill="#a6cee3" stroke="none" points="632,-29.5 632,-47.5 663,-47.5 663,-29.5 632,-29.5"/>
<text text-anchor="start" x="633.62" y="-36.05" font-family="Verdana" font-style="italic" font-size="11.00">int32</text>
<polygon fill="none" stroke="black" points="568,-28.5 568,-84.5 664,-84.5 664,-28.5 568,-28.5"/>
</a>
</g>
</g>
<!-- Node_Ja_103&#45;&gt;Node_Ja_100 -->
<g id="edge3" class="edge">
<title>Node_Ja_103:e&#45;&gt;Node_Ja_100:header</title>
<g id="a_edge3"><a xlink:title="Ja_103 &#45;&#45;&gt; Ja_100">
<path fill="none" stroke="#000000" d="M516,-74.5C534.78,-74.5 542.11,-74.5 556.6,-74.5"/>
<polygon fill="#000000" stroke="#000000" points="556.49,-78 566.49,-74.5 556.49,-71 556.49,-78"/>
</a>
</g>
</g>
</g>
</svg>
