<?xml version="1.0" encoding="UTF-8" standalone="no"?>
<!DOCTYPE svg PUBLIC "-//W3C//DTD SVG 1.1//EN"
 "http://www.w3.org/Graphics/SVG/1.1/DTD/svg11.dtd">
<!-- Generated by graphviz version 9.0.0 (20230911.1827)
 -->
<!-- Title: Token Relation Pages: 1 -->
<svg width="411pt" height="268pt"
 viewBox="0.00 0.00 411.00 267.50" xmlns="http://www.w3.org/2000/svg" xmlns:xlink="http://www.w3.org/1999/xlink">
<g id="graph0" class="graph" transform="scale(1 1) rotate(0) translate(4 263.5)">
<title>Token Relation</title>
<g id="a_graph0"><a xlink:title="proto">
<text text-anchor="middle" x="201.5" y="-7.2" font-family="Times,serif" font-size="14.00">proto</text>
</a>
</g>
<!-- Node_Ja_149 -->
<g id="node1" class="node">
<title>Node_Ja_149</title>
<g id="a_node1"><a xlink:title="proto.TokenRelation">
<polygon fill="#fffaf0" stroke="none" points="8,-73.5 8,-255.5 220,-255.5 220,-73.5 8,-73.5"/>
<polygon fill="#e31a1c" stroke="none" points="9,-236.5 9,-254.5 219,-254.5 219,-236.5 9,-236.5"/>
<text text-anchor="start" x="128.5" y="-243.05" font-family="Verdana" font-weight="bold" font-size="11.00">TokenRelation</text>
<text text-anchor="start" x="14.62" y="-224.05" font-family="Verdana" font-size="11.00">1</text>
<text text-anchor="start" x="25" y="-224.05" font-family="Verdana" font-size="11.00">token_id</text>
<polygon fill="#fb9a99" stroke="none" points="151,-218.5 151,-236.5 219,-236.5 219,-218.5 151,-218.5"/>
<text text-anchor="start" x="164.5" y="-225.05" font-family="Verdana" font-weight="bold" font-size="11.00">TokenID</text>
<text text-anchor="start" x="14.62" y="-206.05" font-family="Verdana" font-size="11.00">2</text>
<text text-anchor="start" x="25" y="-206.05" font-family="Verdana" font-size="11.00">account_id</text>
<polygon fill="#fb9a99" stroke="none" points="151,-200.5 151,-218.5 219,-218.5 219,-200.5 151,-200.5"/>
<text text-anchor="start" x="152.75" y="-207.05" font-family="Verdana" font-weight="bold" font-size="11.00">AccountID</text>
<text text-anchor="start" x="14.62" y="-188.05" font-family="Verdana" font-size="11.00">3</text>
<text text-anchor="start" x="25" y="-188.05" font-family="Verdana" font-size="11.00">balance</text>
<polygon fill="#a6cee3" stroke="none" points="151,-182.5 151,-200.5 219,-200.5 219,-182.5 151,-182.5"/>
<text text-anchor="start" x="189.25" y="-189.05" font-family="Verdana" font-style="italic" font-size="11.00">int64</text>
<text text-anchor="start" x="14.62" y="-170.05" font-family="Verdana" font-size="11.00">4</text>
<text text-anchor="start" x="25" y="-170.05" font-family="Verdana" font-size="11.00">frozen</text>
<polygon fill="#a6cee3" stroke="none" points="151,-164.5 151,-182.5 219,-182.5 219,-164.5 151,-164.5"/>
<text text-anchor="start" x="193.75" y="-171.05" font-family="Verdana" font-style="italic" font-size="11.00">bool</text>
<text text-anchor="start" x="14.62" y="-152.05" font-family="Verdana" font-size="11.00">5</text>
<text text-anchor="start" x="25" y="-152.05" font-family="Verdana" font-size="11.00">kyc_granted</text>
<polygon fill="#a6cee3" stroke="none" points="151,-146.5 151,-164.5 219,-164.5 219,-146.5 151,-146.5"/>
<text text-anchor="start" x="193.75" y="-153.05" font-family="Verdana" font-style="italic" font-size="11.00">bool</text>
<text text-anchor="start" x="14.62" y="-134.05" font-family="Verdana" font-size="11.00">6</text>
<text text-anchor="start" x="25" y="-134.05" font-family="Verdana" font-size="11.00">deleted</text>
<polygon fill="#a6cee3" stroke="none" points="151,-128.5 151,-146.5 219,-146.5 219,-128.5 151,-128.5"/>
<text text-anchor="start" x="193.75" y="-135.05" font-family="Verdana" font-style="italic" font-size="11.00">bool</text>
<text text-anchor="start" x="14.62" y="-116.05" font-family="Verdana" font-size="11.00">7</text>
<text text-anchor="start" x="24.75" y="-116.05" font-family="Verdana" font-size="11.00">automatic_association</text>
<polygon fill="#a6cee3" stroke="none" points="151,-110.5 151,-128.5 219,-128.5 219,-110.5 151,-110.5"/>
<text text-anchor="start" x="193.75" y="-117.05" font-family="Verdana" font-style="italic" font-size="11.00">bool</text>
<text text-anchor="start" x="14.62" y="-98.05" font-family="Verdana" font-size="11.00">8</text>
<text text-anchor="start" x="25" y="-98.05" font-family="Verdana" font-size="11.00">previous_token</text>
<polygon fill="#fb9a99" stroke="none" points="151,-92.5 151,-110.5 219,-110.5 219,-92.5 151,-92.5"/>
<text text-anchor="start" x="164.5" y="-99.05" font-family="Verdana" font-weight="bold" font-size="11.00">TokenID</text>
<text text-anchor="start" x="14.62" y="-80.05" font-family="Verdana" font-size="11.00">9</text>
<text text-anchor="start" x="25" y="-80.05" font-family="Verdana" font-size="11.00">next_token</text>
<polygon fill="#fb9a99" stroke="none" points="151,-74.5 151,-92.5 219,-92.5 219,-74.5 151,-74.5"/>
<text text-anchor="start" x="164.5" y="-81.05" font-family="Verdana" font-weight="bold" font-size="11.00">TokenID</text>
<polygon fill="none" stroke="black" points="8,-73.5 8,-255.5 220,-255.5 220,-73.5 8,-73.5"/>
</a>
</g>
</g>
<!-- Node_Ja_104 -->
<g id="node2" class="node">
<title>Node_Ja_104</title>
<g id="a_node2"><a xlink:title="proto.TokenID">
<polygon fill="#fffaf0" stroke="none" points="279.5,-28.5 279.5,-102.5 387.5,-102.5 387.5,-28.5 279.5,-28.5"/>
<polygon fill="#e31a1c" stroke="none" points="280.5,-83.5 280.5,-101.5 386.5,-101.5 386.5,-83.5 280.5,-83.5"/>
<text text-anchor="start" x="332" y="-90.05" font-family="Verdana" font-weight="bold" font-size="11.00">TokenID</text>
<text text-anchor="start" x="286.12" y="-71.05" font-family="Verdana" font-size="11.00">1</text>
<text text-anchor="start" x="296.5" y="-71.05" font-family="Verdana" font-size="11.00">shardNum</text>
<polygon fill="#a6cee3" stroke="none" points="355.5,-65.5 355.5,-83.5 386.5,-83.5 386.5,-65.5 355.5,-65.5"/>
<text text-anchor="start" x="357.12" y="-72.05" font-family="Verdana" font-style="italic" font-size="11.00">int64</text>
<text text-anchor="start" x="286.12" y="-53.05" font-family="Verdana" font-size="11.00">2</text>
<text text-anchor="start" x="296.5" y="-53.05" font-family="Verdana" font-size="11.00">realmNum</text>
<polygon fill="#a6cee3" stroke="none" points="355.5,-47.5 355.5,-65.5 386.5,-65.5 386.5,-47.5 355.5,-47.5"/>
<text text-anchor="start" x="357.12" y="-54.05" font-family="Verdana" font-style="italic" font-size="11.00">int64</text>
<text text-anchor="start" x="286.12" y="-35.05" font-family="Verdana" font-size="11.00">3</text>
<text text-anchor="start" x="296.5" y="-35.05" font-family="Verdana" font-size="11.00">tokenNum</text>
<polygon fill="#a6cee3" stroke="none" points="355.5,-29.5 355.5,-47.5 386.5,-47.5 386.5,-29.5 355.5,-29.5"/>
<text text-anchor="start" x="357.12" y="-36.05" font-family="Verdana" font-style="italic" font-size="11.00">int64</text>
<polygon fill="none" stroke="black" points="279.5,-28.5 279.5,-102.5 387.5,-102.5 387.5,-28.5 279.5,-28.5"/>
</a>
</g>
</g>
<!-- Node_Ja_149&#45;&gt;Node_Ja_104 -->
<g id="edge1" class="edge">
<title>Node_Ja_149:e&#45;&gt;Node_Ja_104:header</title>
<g id="a_edge1"><a xlink:title="Ja_149 &#45;&#45;&gt; Ja_104">
<path fill="none" stroke="#000000" d="M220,-83.5C242.57,-83.5 250.37,-89.91 268.32,-91.91"/>
<polygon fill="#000000" stroke="#000000" points="267.82,-95.39 277.99,-92.42 268.19,-88.4 267.82,-95.39"/>
</a>
</g>
</g>
<!-- Node_Ja_149&#45;&gt;Node_Ja_104 -->
<g id="edge2" class="edge">
<title>Node_Ja_149:e&#45;&gt;Node_Ja_104:header</title>
<g id="a_edge2"><a xlink:title="Ja_149 &#45;&#45;&gt; Ja_104">
<path fill="none" stroke="#000000" d="M220,-101.5C242.57,-101.5 250.37,-95.09 268.32,-93.09"/>
<polygon fill="#000000" stroke="#000000" points="268.19,-96.6 277.99,-92.58 267.82,-89.61 268.19,-96.6"/>
</a>
</g>
</g>
<!-- Node_Ja_149&#45;&gt;Node_Ja_104 -->
<g id="edge3" class="edge">
<title>Node_Ja_149:e&#45;&gt;Node_Ja_104:header</title>
<g id="a_edge3"><a xlink:title="Ja_149 &#45;&#45;&gt; Ja_104">
<path fill="none" stroke="#000000" d="M220,-227.5C281.21,-227.5 222.84,-109.83 268.17,-94.21"/>
<polygon fill="#000000" stroke="#000000" points="268.64,-97.68 278,-92.73 267.59,-90.75 268.64,-97.68"/>
</a>
</g>
</g>
<!-- Node_Ja_105 -->
<g id="node3" class="node">
<title>Node_Ja_105</title>
<g id="a_node3"><a xlink:title="proto.AccountID">
<polygon fill="#fffaf0" stroke="none" points="272,-128.5 272,-242.5 395,-242.5 395,-128.5 272,-128.5"/>
<polygon fill="#e31a1c" stroke="none" points="273,-223.5 273,-241.5 394,-241.5 394,-223.5 273,-223.5"/>
<text text-anchor="start" x="327.5" y="-230.05" font-family="Verdana" font-weight="bold" font-size="11.00">AccountID</text>
<text text-anchor="start" x="278.62" y="-211.05" font-family="Verdana" font-size="11.00">1</text>
<text text-anchor="start" x="289" y="-211.05" font-family="Verdana" font-size="11.00">shardNum</text>
<polygon fill="#a6cee3" stroke="none" points="360,-205.5 360,-223.5 394,-223.5 394,-205.5 360,-205.5"/>
<text text-anchor="start" x="364.25" y="-212.05" font-family="Verdana" font-style="italic" font-size="11.00">int64</text>
<text text-anchor="start" x="278.62" y="-193.05" font-family="Verdana" font-size="11.00">2</text>
<text text-anchor="start" x="289" y="-193.05" font-family="Verdana" font-size="11.00">realmNum</text>
<polygon fill="#a6cee3" stroke="none" points="360,-187.5 360,-205.5 394,-205.5 394,-187.5 360,-187.5"/>
<text text-anchor="start" x="364.25" y="-194.05" font-family="Verdana" font-style="italic" font-size="11.00">int64</text>
<polygon fill="#fdbf6f" stroke="none" points="273,-169.5 273,-187.5 394,-187.5 394,-169.5 273,-169.5"/>
<text text-anchor="start" x="275" y="-175.05" font-family="Verdana" font-size="11.00">account</text>
<polygon fill="#fdbf6f" stroke="none" points="273,-151.5 273,-169.5 277,-169.5 277,-151.5 273,-151.5"/>
<text text-anchor="start" x="278.62" y="-157.05" font-family="Verdana" font-size="11.00">3</text>
<text text-anchor="start" x="289" y="-157.05" font-family="Verdana" font-size="11.00">accountNum</text>
<polygon fill="#a6cee3" stroke="none" points="360,-151.5 360,-169.5 394,-169.5 394,-151.5 360,-151.5"/>
<text text-anchor="start" x="364.25" y="-158.05" font-family="Verdana" font-style="italic" font-size="11.00">int64</text>
<polygon fill="#fdbf6f" stroke="none" points="273,-133.5 273,-151.5 277,-151.5 277,-133.5 273,-133.5"/>
<text text-anchor="start" x="278.62" y="-139.05" font-family="Verdana" font-size="11.00">4</text>
<text text-anchor="start" x="289" y="-139.05" font-family="Verdana" font-size="11.00">alias</text>
<polygon fill="#a6cee3" stroke="none" points="360,-133.5 360,-151.5 394,-151.5 394,-133.5 360,-133.5"/>
<text text-anchor="start" x="361.62" y="-140.05" font-family="Verdana" font-style="italic" font-size="11.00">bytes</text>
<polygon fill="#fdbf6f" stroke="none" points="273,-129.5 273,-133.5 394,-133.5 394,-129.5 273,-129.5"/>
<polygon fill="none" stroke="black" points="272,-128.5 272,-242.5 395,-242.5 395,-128.5 272,-128.5"/>
</a>
</g>
</g>
<!-- Node_Ja_149&#45;&gt;Node_Ja_105 -->
<g id="edge4" class="edge">
<title>Node_Ja_149:e&#45;&gt;Node_Ja_105:header</title>
<g id="a_edge4"><a xlink:title="Ja_149 &#45;&#45;&gt; Ja_105">
<path fill="none" stroke="#000000" d="M220,-209.5C240.76,-209.5 245.26,-225.27 260.43,-230.7"/>
<polygon fill="#000000" stroke="#000000" points="259.57,-234.1 270.01,-232.26 260.7,-227.19 259.57,-234.1"/>
</a>
</g>
</g>
</g>
</svg>
