<?xml version="1.0" encoding="UTF-8" standalone="no"?>
<!DOCTYPE svg PUBLIC "-//W3C//DTD SVG 1.1//EN"
 "http://www.w3.org/Graphics/SVG/1.1/DTD/svg11.dtd">
<!-- Generated by graphviz version 9.0.0 (20230911.1827)
 -->
<!-- Title: Topic Pages: 1 -->
<svg width="872pt" height="578pt"
 viewBox="0.00 0.00 872.01 577.90" xmlns="http://www.w3.org/2000/svg" xmlns:xlink="http://www.w3.org/1999/xlink">
<g id="graph0" class="graph" transform="scale(1 1) rotate(0) translate(4 573.9)">
<title>Topic</title>
<g id="a_graph0"><a xlink:title="proto">
<text text-anchor="middle" x="432.01" y="-7.2" font-family="Times,serif" font-size="14.00">proto</text>
</a>
</g>
<!-- Node_Ja_108 -->
<g id="node1" class="node">
<title>Node_Ja_108</title>
<g id="a_node1"><a xlink:title="proto.ContractID">
<polygon fill="#fffaf0" stroke="none" points="580,-175.9 580,-289.9 708,-289.9 708,-175.9 580,-175.9"/>
<polygon fill="#e31a1c" stroke="none" points="581,-270.9 581,-288.9 707,-288.9 707,-270.9 581,-270.9"/>
<text text-anchor="start" x="636.75" y="-277.45" font-family="Verdana" font-weight="bold" font-size="11.00">ContractID</text>
<text text-anchor="start" x="586.62" y="-258.45" font-family="Verdana" font-size="11.00">1</text>
<text text-anchor="start" x="597" y="-258.45" font-family="Verdana" font-size="11.00">shardNum</text>
<polygon fill="#a6cee3" stroke="none" points="673,-252.9 673,-270.9 707,-270.9 707,-252.9 673,-252.9"/>
<text text-anchor="start" x="677.25" y="-259.45" font-family="Verdana" font-style="italic" font-size="11.00">int64</text>
<text text-anchor="start" x="586.62" y="-240.45" font-family="Verdana" font-size="11.00">2</text>
<text text-anchor="start" x="597" y="-240.45" font-family="Verdana" font-size="11.00">realmNum</text>
<polygon fill="#a6cee3" stroke="none" points="673,-234.9 673,-252.9 707,-252.9 707,-234.9 673,-234.9"/>
<text text-anchor="start" x="677.25" y="-241.45" font-family="Verdana" font-style="italic" font-size="11.00">int64</text>
<polygon fill="#fdbf6f" stroke="none" points="581,-216.9 581,-234.9 707,-234.9 707,-216.9 581,-216.9"/>
<text text-anchor="start" x="583" y="-222.45" font-family="Verdana" font-size="11.00">contract</text>
<polygon fill="#fdbf6f" stroke="none" points="581,-198.9 581,-216.9 585,-216.9 585,-198.9 581,-198.9"/>
<text text-anchor="start" x="586.62" y="-204.45" font-family="Verdana" font-size="11.00">3</text>
<text text-anchor="start" x="597" y="-204.45" font-family="Verdana" font-size="11.00">contractNum</text>
<polygon fill="#a6cee3" stroke="none" points="673,-198.9 673,-216.9 707,-216.9 707,-198.9 673,-198.9"/>
<text text-anchor="start" x="677.25" y="-205.45" font-family="Verdana" font-style="italic" font-size="11.00">int64</text>
<polygon fill="#fdbf6f" stroke="none" points="581,-180.9 581,-198.9 585,-198.9 585,-180.9 581,-180.9"/>
<text text-anchor="start" x="586.62" y="-186.45" font-family="Verdana" font-size="11.00">4</text>
<text text-anchor="start" x="596.88" y="-186.45" font-family="Verdana" font-size="11.00">evm_address</text>
<polygon fill="#a6cee3" stroke="none" points="673,-180.9 673,-198.9 707,-198.9 707,-180.9 673,-180.9"/>
<text text-anchor="start" x="674.62" y="-187.45" font-family="Verdana" font-style="italic" font-size="11.00">bytes</text>
<polygon fill="#fdbf6f" stroke="none" points="581,-176.9 581,-180.9 707,-180.9 707,-176.9 581,-176.9"/>
<polygon fill="none" stroke="black" points="580,-175.9 580,-289.9 708,-289.9 708,-175.9 580,-175.9"/>
</a>
</g>
</g>
<!-- Node_Ja_125 -->
<g id="node2" class="node">
<title>Node_Ja_125</title>
<g id="a_node2"><a xlink:title="proto.KeyList">
<polygon fill="#fffaf0" stroke="none" points="760,-75.9 760,-113.9 854,-113.9 854,-75.9 760,-75.9"/>
<polygon fill="#e31a1c" stroke="none" points="761,-94.9 761,-112.9 853,-112.9 853,-94.9 761,-94.9"/>
<text text-anchor="start" x="805.25" y="-101.45" font-family="Verdana" font-weight="bold" font-size="11.00">KeyList</text>
<text text-anchor="start" x="762.62" y="-82.45" font-family="Verdana" font-size="11.00">[...]</text>
<text text-anchor="start" x="787.62" y="-82.45" font-family="Verdana" font-size="11.00">1</text>
<text text-anchor="start" x="797.88" y="-82.45" font-family="Verdana" font-size="11.00">keys</text>
<polygon fill="#fb9a99" stroke="none" points="826,-76.9 826,-94.9 853,-94.9 853,-76.9 826,-76.9"/>
<text text-anchor="start" x="827.88" y="-83.45" font-family="Verdana" font-weight="bold" font-size="11.00">Key</text>
<polygon fill="none" stroke="black" points="760,-75.9 760,-113.9 854,-113.9 854,-75.9 760,-75.9"/>
</a>
</g>
</g>
<!-- Node_Ja_123 -->
<g id="node5" class="node">
<title>Node_Ja_123</title>
<g id="a_node5"><a xlink:title="proto.Key">
<polygon fill="#fffaf0" stroke="none" points="287,-139.9 287,-325.9 528,-325.9 528,-139.9 287,-139.9"/>
<polygon fill="#e31a1c" stroke="none" points="288,-306.9 288,-324.9 527,-324.9 527,-306.9 288,-306.9"/>
<text text-anchor="start" x="501.75" y="-313.45" font-family="Verdana" font-weight="bold" font-size="11.00">Key</text>
<polygon fill="#fdbf6f" stroke="none" points="288,-288.9 288,-306.9 527,-306.9 527,-288.9 288,-288.9"/>
<text text-anchor="start" x="290" y="-294.45" font-family="Verdana" font-size="11.00">key</text>
<polygon fill="#fdbf6f" stroke="none" points="288,-270.9 288,-288.9 292,-288.9 292,-270.9 288,-270.9"/>
<text text-anchor="start" x="293.62" y="-276.45" font-family="Verdana" font-size="11.00">1</text>
<text text-anchor="start" x="304" y="-276.45" font-family="Verdana" font-size="11.00">contractID</text>
<polygon fill="#fb9a99" stroke="none" points="439,-270.9 439,-288.9 527,-288.9 527,-270.9 439,-270.9"/>
<text text-anchor="start" x="456.75" y="-277.45" font-family="Verdana" font-weight="bold" font-size="11.00">ContractID</text>
<polygon fill="#fdbf6f" stroke="none" points="288,-252.9 288,-270.9 292,-270.9 292,-252.9 288,-252.9"/>
<text text-anchor="start" x="293.62" y="-258.45" font-family="Verdana" font-size="11.00">2</text>
<text text-anchor="start" x="304" y="-258.45" font-family="Verdana" font-size="11.00">ed25519</text>
<polygon fill="#a6cee3" stroke="none" points="439,-252.9 439,-270.9 527,-270.9 527,-252.9 439,-252.9"/>
<text text-anchor="start" x="494.25" y="-259.45" font-family="Verdana" font-style="italic" font-size="11.00">bytes</text>
<polygon fill="#fdbf6f" stroke="none" points="288,-234.9 288,-252.9 292,-252.9 292,-234.9 288,-234.9"/>
<text text-anchor="start" x="293.62" y="-240.45" font-family="Verdana" font-size="11.00">3</text>
<text text-anchor="start" x="304" y="-240.45" font-family="Verdana" font-size="11.00">RSA_3072</text>
<polygon fill="#a6cee3" stroke="none" points="439,-234.9 439,-252.9 527,-252.9 527,-234.9 439,-234.9"/>
<text text-anchor="start" x="494.25" y="-241.45" font-family="Verdana" font-style="italic" font-size="11.00">bytes</text>
<polygon fill="#fdbf6f" stroke="none" points="288,-216.9 288,-234.9 292,-234.9 292,-216.9 288,-216.9"/>
<text text-anchor="start" x="293.62" y="-222.45" font-family="Verdana" font-size="11.00">4</text>
<text text-anchor="start" x="304" y="-222.45" font-family="Verdana" font-size="11.00">ECDSA_384</text>
<polygon fill="#a6cee3" stroke="none" points="439,-216.9 439,-234.9 527,-234.9 527,-216.9 439,-216.9"/>
<text text-anchor="start" x="494.25" y="-223.45" font-family="Verdana" font-style="italic" font-size="11.00">bytes</text>
<polygon fill="#fdbf6f" stroke="none" points="288,-198.9 288,-216.9 292,-216.9 292,-198.9 288,-198.9"/>
<text text-anchor="start" x="293.62" y="-204.45" font-family="Verdana" font-size="11.00">5</text>
<text text-anchor="start" x="304" y="-204.45" font-family="Verdana" font-size="11.00">thresholdKey</text>
<polygon fill="#fb9a99" stroke="none" points="439,-198.9 439,-216.9 527,-216.9 527,-198.9 439,-198.9"/>
<text text-anchor="start" x="441" y="-205.45" font-family="Verdana" font-weight="bold" font-size="11.00">ThresholdKey</text>
<polygon fill="#fdbf6f" stroke="none" points="288,-180.9 288,-198.9 292,-198.9 292,-180.9 288,-180.9"/>
<text text-anchor="start" x="293.62" y="-186.45" font-family="Verdana" font-size="11.00">6</text>
<text text-anchor="start" x="304" y="-186.45" font-family="Verdana" font-size="11.00">keyList</text>
<polygon fill="#fb9a99" stroke="none" points="439,-180.9 439,-198.9 527,-198.9 527,-180.9 439,-180.9"/>
<text text-anchor="start" x="479.25" y="-187.45" font-family="Verdana" font-weight="bold" font-size="11.00">KeyList</text>
<polygon fill="#fdbf6f" stroke="none" points="288,-162.9 288,-180.9 292,-180.9 292,-162.9 288,-162.9"/>
<text text-anchor="start" x="293.62" y="-168.45" font-family="Verdana" font-size="11.00">7</text>
<text text-anchor="start" x="304" y="-168.45" font-family="Verdana" font-size="11.00">ECDSA_secp256k1</text>
<polygon fill="#a6cee3" stroke="none" points="439,-162.9 439,-180.9 527,-180.9 527,-162.9 439,-162.9"/>
<text text-anchor="start" x="494.25" y="-169.45" font-family="Verdana" font-style="italic" font-size="11.00">bytes</text>
<polygon fill="#fdbf6f" stroke="none" points="288,-144.9 288,-162.9 292,-162.9 292,-144.9 288,-144.9"/>
<text text-anchor="start" x="293.62" y="-150.45" font-family="Verdana" font-size="11.00">8</text>
<text text-anchor="start" x="303.75" y="-150.45" font-family="Verdana" font-size="11.00">delegatable_contract_id</text>
<polygon fill="#fb9a99" stroke="none" points="439,-144.9 439,-162.9 527,-162.9 527,-144.9 439,-144.9"/>
<text text-anchor="start" x="456.75" y="-151.45" font-family="Verdana" font-weight="bold" font-size="11.00">ContractID</text>
<polygon fill="#fdbf6f" stroke="none" points="288,-140.9 288,-144.9 527,-144.9 527,-140.9 288,-140.9"/>
<polygon fill="none" stroke="black" points="287,-139.9 287,-325.9 528,-325.9 528,-139.9 287,-139.9"/>
</a>
</g>
</g>
<!-- Node_Ja_125&#45;&gt;Node_Ja_123 -->
<g id="edge6" class="edge">
<title>Node_Ja_125:e&#45;&gt;Node_Ja_123:header</title>
<g id="a_edge6"><a xlink:title="Ja_125 &#45;&#45;&gt; Ja_123">
<path fill="none" stroke="#000000" d="M854,-85.9C868.76,-85.9 885.29,42.24 752,-71.9 673.07,-139.47 792.54,-232.63 716,-302.9 657.35,-356.74 616.05,-319.75 539.98,-316.17"/>
<polygon fill="#000000" stroke="#000000" points="540.09,-312.67 530.01,-315.93 539.93,-319.67 540.09,-312.67"/>
</a>
</g>
</g>
<!-- Node_Ja_149 -->
<g id="node3" class="node">
<title>Node_Ja_149</title>
<g id="a_node3"><a xlink:title="proto.Topic">
<polygon fill="#fffaf0" stroke="none" points="8,-330.9 8,-530.9 235,-530.9 235,-330.9 8,-330.9"/>
<polygon fill="#e31a1c" stroke="none" points="9,-511.9 9,-529.9 234,-529.9 234,-511.9 9,-511.9"/>
<text text-anchor="start" x="199" y="-518.45" font-family="Verdana" font-weight="bold" font-size="11.00">Topic</text>
<text text-anchor="start" x="21.25" y="-499.45" font-family="Verdana" font-size="11.00">1</text>
<text text-anchor="start" x="32" y="-499.45" font-family="Verdana" font-size="11.00">topic_id</text>
<polygon fill="#fb9a99" stroke="none" points="166,-493.9 166,-511.9 234,-511.9 234,-493.9 166,-493.9"/>
<text text-anchor="start" x="184" y="-500.45" font-family="Verdana" font-weight="bold" font-size="11.00">TopicID</text>
<text text-anchor="start" x="21.25" y="-481.45" font-family="Verdana" font-size="11.00">2</text>
<text text-anchor="start" x="32" y="-481.45" font-family="Verdana" font-size="11.00">sequence_number</text>
<polygon fill="#a6cee3" stroke="none" points="166,-475.9 166,-493.9 234,-493.9 234,-475.9 166,-475.9"/>
<text text-anchor="start" x="204.25" y="-482.45" font-family="Verdana" font-style="italic" font-size="11.00">int64</text>
<text text-anchor="start" x="21.25" y="-463.45" font-family="Verdana" font-size="11.00">3</text>
<text text-anchor="start" x="32" y="-463.45" font-family="Verdana" font-size="11.00">expiration_second</text>
<polygon fill="#a6cee3" stroke="none" points="166,-457.9 166,-475.9 234,-475.9 234,-457.9 166,-457.9"/>
<text text-anchor="start" x="204.25" y="-464.45" font-family="Verdana" font-style="italic" font-size="11.00">int64</text>
<text text-anchor="start" x="21.25" y="-445.45" font-family="Verdana" font-size="11.00">4</text>
<text text-anchor="start" x="32" y="-445.45" font-family="Verdana" font-size="11.00">auto_renew_period</text>
<polygon fill="#a6cee3" stroke="none" points="166,-439.9 166,-457.9 234,-457.9 234,-439.9 166,-439.9"/>
<text text-anchor="start" x="204.25" y="-446.45" font-family="Verdana" font-style="italic" font-size="11.00">int64</text>
<text text-anchor="start" x="21.25" y="-427.45" font-family="Verdana" font-size="11.00">5</text>
<text text-anchor="start" x="32" y="-427.45" font-family="Verdana" font-size="11.00">auto_renew_account_id</text>
<polygon fill="#fb9a99" stroke="none" points="166,-421.9 166,-439.9 234,-439.9 234,-421.9 166,-421.9"/>
<text text-anchor="start" x="167.75" y="-428.45" font-family="Verdana" font-weight="bold" font-size="11.00">AccountID</text>
<text text-anchor="start" x="21.25" y="-409.45" font-family="Verdana" font-size="11.00">6</text>
<text text-anchor="start" x="32" y="-409.45" font-family="Verdana" font-size="11.00">deleted</text>
<polygon fill="#a6cee3" stroke="none" points="166,-403.9 166,-421.9 234,-421.9 234,-403.9 166,-403.9"/>
<text text-anchor="start" x="208.75" y="-410.45" font-family="Verdana" font-style="italic" font-size="11.00">bool</text>
<text text-anchor="start" x="21.25" y="-391.45" font-family="Verdana" font-size="11.00">7</text>
<text text-anchor="start" x="32" y="-391.45" font-family="Verdana" font-size="11.00">running_hash</text>
<polygon fill="#a6cee3" stroke="none" points="166,-385.9 166,-403.9 234,-403.9 234,-385.9 166,-385.9"/>
<text text-anchor="start" x="201.25" y="-392.45" font-family="Verdana" font-style="italic" font-size="11.00">bytes</text>
<text text-anchor="start" x="21.25" y="-373.45" font-family="Verdana" font-size="11.00">8</text>
<text text-anchor="start" x="32" y="-373.45" font-family="Verdana" font-size="11.00">memo</text>
<polygon fill="#a6cee3" stroke="none" points="166,-367.9 166,-385.9 234,-385.9 234,-367.9 166,-367.9"/>
<text text-anchor="start" x="200.5" y="-374.45" font-family="Verdana" font-style="italic" font-size="11.00">string</text>
<text text-anchor="start" x="21.25" y="-355.45" font-family="Verdana" font-size="11.00">9</text>
<text text-anchor="start" x="32" y="-355.45" font-family="Verdana" font-size="11.00">admin_key</text>
<polygon fill="#fb9a99" stroke="none" points="166,-349.9 166,-367.9 234,-367.9 234,-349.9 166,-349.9"/>
<text text-anchor="start" x="208.75" y="-356.45" font-family="Verdana" font-weight="bold" font-size="11.00">Key</text>
<text text-anchor="start" x="14.75" y="-337.45" font-family="Verdana" font-size="11.00">10</text>
<text text-anchor="start" x="32" y="-337.45" font-family="Verdana" font-size="11.00">submit_key</text>
<polygon fill="#fb9a99" stroke="none" points="166,-331.9 166,-349.9 234,-349.9 234,-331.9 166,-331.9"/>
<text text-anchor="start" x="208.75" y="-338.45" font-family="Verdana" font-weight="bold" font-size="11.00">Key</text>
<polygon fill="none" stroke="black" points="8,-330.9 8,-530.9 235,-530.9 235,-330.9 8,-330.9"/>
</a>
</g>
</g>
<!-- Node_Ja_115 -->
<g id="node4" class="node">
<title>Node_Ja_115</title>
<g id="a_node4"><a xlink:title="proto.TopicID">
<polygon fill="#fffaf0" stroke="none" points="353.5,-491.9 353.5,-565.9 461.5,-565.9 461.5,-491.9 353.5,-491.9"/>
<polygon fill="#e31a1c" stroke="none" points="354.5,-546.9 354.5,-564.9 460.5,-564.9 460.5,-546.9 354.5,-546.9"/>
<text text-anchor="start" x="410.5" y="-553.45" font-family="Verdana" font-weight="bold" font-size="11.00">TopicID</text>
<text text-anchor="start" x="360.12" y="-534.45" font-family="Verdana" font-size="11.00">1</text>
<text text-anchor="start" x="370.5" y="-534.45" font-family="Verdana" font-size="11.00">shardNum</text>
<polygon fill="#a6cee3" stroke="none" points="429.5,-528.9 429.5,-546.9 460.5,-546.9 460.5,-528.9 429.5,-528.9"/>
<text text-anchor="start" x="431.12" y="-535.45" font-family="Verdana" font-style="italic" font-size="11.00">int64</text>
<text text-anchor="start" x="360.12" y="-516.45" font-family="Verdana" font-size="11.00">2</text>
<text text-anchor="start" x="370.5" y="-516.45" font-family="Verdana" font-size="11.00">realmNum</text>
<polygon fill="#a6cee3" stroke="none" points="429.5,-510.9 429.5,-528.9 460.5,-528.9 460.5,-510.9 429.5,-510.9"/>
<text text-anchor="start" x="431.12" y="-517.45" font-family="Verdana" font-style="italic" font-size="11.00">int64</text>
<text text-anchor="start" x="360.12" y="-498.45" font-family="Verdana" font-size="11.00">3</text>
<text text-anchor="start" x="370.5" y="-498.45" font-family="Verdana" font-size="11.00">topicNum</text>
<polygon fill="#a6cee3" stroke="none" points="429.5,-492.9 429.5,-510.9 460.5,-510.9 460.5,-492.9 429.5,-492.9"/>
<text text-anchor="start" x="431.12" y="-499.45" font-family="Verdana" font-style="italic" font-size="11.00">int64</text>
<polygon fill="none" stroke="black" points="353.5,-491.9 353.5,-565.9 461.5,-565.9 461.5,-491.9 353.5,-491.9"/>
</a>
</g>
</g>
<!-- Node_Ja_149&#45;&gt;Node_Ja_115 -->
<g id="edge1" class="edge">
<title>Node_Ja_149:e&#45;&gt;Node_Ja_115:header</title>
<g id="a_edge1"><a xlink:title="Ja_149 &#45;&#45;&gt; Ja_115">
<path fill="none" stroke="#000000" d="M235.5,-502.9C288.95,-502.9 295.31,-548.7 342.14,-555.15"/>
<polygon fill="#000000" stroke="#000000" points="341.78,-558.63 351.99,-555.8 342.24,-551.64 341.78,-558.63"/>
</a>
</g>
</g>
<!-- Node_Ja_149&#45;&gt;Node_Ja_123 -->
<g id="edge2" class="edge">
<title>Node_Ja_149:e&#45;&gt;Node_Ja_123:header</title>
<g id="a_edge2"><a xlink:title="Ja_149 &#45;&#45;&gt; Ja_123">
<path fill="none" stroke="#000000" d="M235.5,-340.9C256.4,-340.9 260.35,-323.75 275.42,-317.86"/>
<polygon fill="#000000" stroke="#000000" points="275.77,-321.35 285.01,-316.16 274.55,-314.46 275.77,-321.35"/>
</a>
</g>
</g>
<!-- Node_Ja_149&#45;&gt;Node_Ja_123 -->
<g id="edge7" class="edge">
<title>Node_Ja_149:e&#45;&gt;Node_Ja_123:header</title>
<g id="a_edge7"><a xlink:title="Ja_149 &#45;&#45;&gt; Ja_123">
<path fill="none" stroke="#000000" d="M235.5,-358.9C260.75,-358.9 258.48,-327.71 275.56,-318.46"/>
<polygon fill="#000000" stroke="#000000" points="276.09,-321.93 285.03,-316.24 274.49,-315.11 276.09,-321.93"/>
</a>
</g>
</g>
<!-- Node_Ja_105 -->
<g id="node6" class="node">
<title>Node_Ja_105</title>
<g id="a_node6"><a xlink:title="proto.AccountID">
<polygon fill="#fffaf0" stroke="none" points="346,-351.9 346,-465.9 469,-465.9 469,-351.9 346,-351.9"/>
<polygon fill="#e31a1c" stroke="none" points="347,-446.9 347,-464.9 468,-464.9 468,-446.9 347,-446.9"/>
<text text-anchor="start" x="401.5" y="-453.45" font-family="Verdana" font-weight="bold" font-size="11.00">AccountID</text>
<text text-anchor="start" x="352.62" y="-434.45" font-family="Verdana" font-size="11.00">1</text>
<text text-anchor="start" x="363" y="-434.45" font-family="Verdana" font-size="11.00">shardNum</text>
<polygon fill="#a6cee3" stroke="none" points="434,-428.9 434,-446.9 468,-446.9 468,-428.9 434,-428.9"/>
<text text-anchor="start" x="438.25" y="-435.45" font-family="Verdana" font-style="italic" font-size="11.00">int64</text>
<text text-anchor="start" x="352.62" y="-416.45" font-family="Verdana" font-size="11.00">2</text>
<text text-anchor="start" x="363" y="-416.45" font-family="Verdana" font-size="11.00">realmNum</text>
<polygon fill="#a6cee3" stroke="none" points="434,-410.9 434,-428.9 468,-428.9 468,-410.9 434,-410.9"/>
<text text-anchor="start" x="438.25" y="-417.45" font-family="Verdana" font-style="italic" font-size="11.00">int64</text>
<polygon fill="#fdbf6f" stroke="none" points="347,-392.9 347,-410.9 468,-410.9 468,-392.9 347,-392.9"/>
<text text-anchor="start" x="349" y="-398.45" font-family="Verdana" font-size="11.00">account</text>
<polygon fill="#fdbf6f" stroke="none" points="347,-374.9 347,-392.9 351,-392.9 351,-374.9 347,-374.9"/>
<text text-anchor="start" x="352.62" y="-380.45" font-family="Verdana" font-size="11.00">3</text>
<text text-anchor="start" x="363" y="-380.45" font-family="Verdana" font-size="11.00">accountNum</text>
<polygon fill="#a6cee3" stroke="none" points="434,-374.9 434,-392.9 468,-392.9 468,-374.9 434,-374.9"/>
<text text-anchor="start" x="438.25" y="-381.45" font-family="Verdana" font-style="italic" font-size="11.00">int64</text>
<polygon fill="#fdbf6f" stroke="none" points="347,-356.9 347,-374.9 351,-374.9 351,-356.9 347,-356.9"/>
<text text-anchor="start" x="352.62" y="-362.45" font-family="Verdana" font-size="11.00">4</text>
<text text-anchor="start" x="363" y="-362.45" font-family="Verdana" font-size="11.00">alias</text>
<polygon fill="#a6cee3" stroke="none" points="434,-356.9 434,-374.9 468,-374.9 468,-356.9 434,-356.9"/>
<text text-anchor="start" x="435.62" y="-363.45" font-family="Verdana" font-style="italic" font-size="11.00">bytes</text>
<polygon fill="#fdbf6f" stroke="none" points="347,-352.9 347,-356.9 468,-356.9 468,-352.9 347,-352.9"/>
<polygon fill="none" stroke="black" points="346,-351.9 346,-465.9 469,-465.9 469,-351.9 346,-351.9"/>
</a>
</g>
</g>
<!-- Node_Ja_149&#45;&gt;Node_Ja_105 -->
<g id="edge3" class="edge">
<title>Node_Ja_149:e&#45;&gt;Node_Ja_105:header</title>
<g id="a_edge3"><a xlink:title="Ja_149 &#45;&#45;&gt; Ja_105">
<path fill="none" stroke="#000000" d="M235.5,-430.9C281.62,-430.9 293.55,-452.05 334.19,-455.44"/>
<polygon fill="#000000" stroke="#000000" points="333.85,-458.93 343.99,-455.83 334.14,-451.93 333.85,-458.93"/>
</a>
</g>
</g>
<!-- Node_Ja_123&#45;&gt;Node_Ja_108 -->
<g id="edge4" class="edge">
<title>Node_Ja_123:e&#45;&gt;Node_Ja_108:header</title>
<g id="a_edge4"><a xlink:title="Ja_123 &#45;&#45;&gt; Ja_108">
<path fill="none" stroke="#000000" d="M528.5,-279.9C547.1,-279.9 554.36,-279.9 568.71,-279.9"/>
<polygon fill="#000000" stroke="#000000" points="568.49,-283.4 578.49,-279.9 568.49,-276.4 568.49,-283.4"/>
</a>
</g>
</g>
<!-- Node_Ja_123&#45;&gt;Node_Ja_108 -->
<g id="edge9" class="edge">
<title>Node_Ja_123:e&#45;&gt;Node_Ja_108:header</title>
<g id="a_edge9"><a xlink:title="Ja_123 &#45;&#45;&gt; Ja_108">
<path fill="none" stroke="#000000" d="M528.5,-153.9C584.63,-153.9 528.87,-262.34 568.82,-278.02"/>
<polygon fill="#000000" stroke="#000000" points="568.07,-281.44 578.51,-279.64 569.23,-274.53 568.07,-281.44"/>
</a>
</g>
</g>
<!-- Node_Ja_123&#45;&gt;Node_Ja_125 -->
<g id="edge10" class="edge">
<title>Node_Ja_123:e&#45;&gt;Node_Ja_125:header</title>
<g id="a_edge10"><a xlink:title="Ja_123 &#45;&#45;&gt; Ja_125">
<path fill="none" stroke="#000000" d="M528.5,-189.9C580.66,-189.9 528.82,-110.15 572,-80.9 624.98,-44.99 653.85,-65.63 716,-80.9 733.08,-85.09 736.87,-97.2 748.87,-101.95"/>
<polygon fill="#000000" stroke="#000000" points="748.06,-105.36 758.51,-103.64 749.26,-98.47 748.06,-105.36"/>
</a>
</g>
</g>
<!-- Node_Ja_124 -->
<g id="node7" class="node">
<title>Node_Ja_124</title>
<g id="a_node7"><a xlink:title="proto.ThresholdKey">
<polygon fill="#fffaf0" stroke="none" points="584,-93.9 584,-149.9 704,-149.9 704,-93.9 584,-93.9"/>
<polygon fill="#e31a1c" stroke="none" points="585,-130.9 585,-148.9 703,-148.9 703,-130.9 585,-130.9"/>
<text text-anchor="start" x="617" y="-137.45" font-family="Verdana" font-weight="bold" font-size="11.00">ThresholdKey</text>
<text text-anchor="start" x="590.62" y="-118.45" font-family="Verdana" font-size="11.00">1</text>
<text text-anchor="start" x="600.62" y="-118.45" font-family="Verdana" font-size="11.00">threshold</text>
<polygon fill="#a6cee3" stroke="none" points="654,-112.9 654,-130.9 703,-130.9 703,-112.9 654,-112.9"/>
<text text-anchor="start" x="666.5" y="-119.45" font-family="Verdana" font-style="italic" font-size="11.00">uint32</text>
<text text-anchor="start" x="590.62" y="-100.45" font-family="Verdana" font-size="11.00">2</text>
<text text-anchor="start" x="601" y="-100.45" font-family="Verdana" font-size="11.00">keys</text>
<polygon fill="#fb9a99" stroke="none" points="654,-94.9 654,-112.9 703,-112.9 703,-94.9 654,-94.9"/>
<text text-anchor="start" x="655.62" y="-101.45" font-family="Verdana" font-weight="bold" font-size="11.00">KeyList</text>
<polygon fill="none" stroke="black" points="584,-93.9 584,-149.9 704,-149.9 704,-93.9 584,-93.9"/>
</a>
</g>
</g>
<!-- Node_Ja_123&#45;&gt;Node_Ja_124 -->
<g id="edge8" class="edge">
<title>Node_Ja_123:e&#45;&gt;Node_Ja_124:header</title>
<g id="a_edge8"><a xlink:title="Ja_123 &#45;&#45;&gt; Ja_124">
<path fill="none" stroke="#000000" d="M528.5,-207.9C563.09,-207.9 549.3,-154.43 572.93,-142.32"/>
<polygon fill="#000000" stroke="#000000" points="573.5,-145.77 582.52,-140.22 572,-138.94 573.5,-145.77"/>
</a>
</g>
</g>
<!-- Node_Ja_124&#45;&gt;Node_Ja_125 -->
<g id="edge5" class="edge">
<title>Node_Ja_124:e&#45;&gt;Node_Ja_125:header</title>
<g id="a_edge5"><a xlink:title="Ja_124 &#45;&#45;&gt; Ja_125">
<path fill="none" stroke="#000000" d="M704,-103.9C724.61,-103.9 732.42,-103.9 748.63,-103.9"/>
<polygon fill="#000000" stroke="#000000" points="748.49,-107.4 758.49,-103.9 748.49,-100.4 748.49,-107.4"/>
</a>
</g>
</g>
</g>
</svg>
